<svg width="35" height="35" viewBox="0 0 35 35" fill="none" xmlns="http://www.w3.org/2000/svg">
<path d="M17.4999 18.2295C16.1462 18.2295 14.8479 18.7673 13.8907 19.7245C12.9335 20.6817 12.3958 21.98 12.3958 23.3337C12.3958 24.6874 12.9335 25.9856 13.8907 26.9429C14.8479 27.9001 16.1462 28.4378 17.4999 28.4378C18.8536 28.4378 20.1519 27.9001 21.1091 26.9429C22.0663 25.9856 22.6041 24.6874 22.6041 23.3337C22.6041 21.98 22.0663 20.6817 21.1091 19.7245C20.1519 18.7673 18.8536 18.2295 17.4999 18.2295ZM15.3124 23.3337C15.3124 22.7535 15.5429 22.1971 15.9531 21.7869C16.3634 21.3766 16.9198 21.1462 17.4999 21.1462C18.0801 21.1462 18.6365 21.3766 19.0467 21.7869C19.457 22.1971 19.6874 22.7535 19.6874 23.3337C19.6874 23.9138 19.457 24.4702 19.0467 24.8805C18.6365 25.2907 18.0801 25.5212 17.4999 25.5212C16.9198 25.5212 16.3634 25.2907 15.9531 24.8805C15.5429 24.4702 15.3124 23.9138 15.3124 23.3337Z" fill="#47B881"/>
<path d="M25.5588 7.46073L20.9227 0.960938L3.87625 14.5789L2.93125 14.5686V14.5832H2.1875V32.0832H32.8125V14.5832H31.4096L28.6183 6.41802L25.5588 7.46073ZM28.3281 14.5832H13.704L24.5962 10.8703L26.8158 10.1601L28.3281 14.5832ZM22.6771 8.44365L11.4333 12.2761L20.3379 5.1624L22.6771 8.44365ZM5.10417 26.4964V20.1672C5.71943 19.9492 6.27828 19.5966 6.73997 19.1351C7.20166 18.6737 7.55456 18.115 7.77292 17.4999H27.2271C27.4454 18.1153 27.7982 18.6742 28.2599 19.1358C28.7216 19.5975 29.2805 19.9504 29.8958 20.1686V26.4978C29.2805 26.7161 28.7216 27.0689 28.2599 27.5306C27.7982 27.9923 27.4454 28.5512 27.2271 29.1666H7.77583C7.55735 28.5507 7.20412 27.9913 6.7419 27.5294C6.27969 27.0674 5.72017 26.7145 5.10417 26.4964Z" fill="#47B881"/>
</svg>
