<svg width="30" height="30" viewBox="0 0 30 30" fill="none" xmlns="http://www.w3.org/2000/svg">
<circle cx="15" cy="15" r="12.5" fill="#E73D3D"/>
<path d="M19.5781 13.4175C19.5781 13.4175 19.2387 17.6269 19.0419 19.4C18.9481 20.2469 18.425 20.7431 17.5681 20.7587C15.9375 20.7881 14.305 20.79 12.675 20.7556C11.8506 20.7387 11.3362 20.2362 11.2444 19.4044C11.0462 17.6156 10.7087 13.4175 10.7087 13.4175" stroke="white" stroke-width="1.5" stroke-linecap="round" stroke-linejoin="round"/>
<path d="M20.4426 11.3999H9.84387" stroke="white" stroke-width="1.5" stroke-linecap="round" stroke-linejoin="round"/>
<path d="M18.4004 11.3999C17.9097 11.3999 17.4872 11.053 17.391 10.5724L17.2391 9.81236C17.1454 9.46174 16.8279 9.21924 16.466 9.21924H13.8204C13.4585 9.21924 13.141 9.46174 13.0472 9.81236L12.8954 10.5724C12.7991 11.053 12.3766 11.3999 11.886 11.3999" stroke="white" stroke-width="1.5" stroke-linecap="round" stroke-linejoin="round"/>
</svg>
