<svg width="50" height="51" viewBox="0 0 50 51" fill="none" xmlns="http://www.w3.org/2000/svg">
<circle cx="25" cy="25.3818" r="24.5" fill="#FAFCFE" stroke="#E2E9FF"/>
<path d="M21.875 33.5068H28.125" stroke="#4A4A68" stroke-width="1.5" stroke-linecap="round" stroke-linejoin="round"/>
<path d="M25 31.0068V26.6318" stroke="#4A4A68" stroke-width="1.5" stroke-linecap="round" stroke-linejoin="round"/>
<path d="M22.5 24.1318L25 26.6318L27.5 24.1318" stroke="#4A4A68" stroke-width="1.5" stroke-linecap="round" stroke-linejoin="round"/>
<path d="M21.1484 28.4285C20.4043 27.85 19.8017 27.1097 19.3861 26.2637C18.9706 25.4177 18.753 24.4882 18.7499 23.5457C18.7343 20.1551 21.4609 17.3348 24.8515 17.2566C26.1637 17.2255 27.4525 17.6084 28.5349 18.3508C29.6174 19.0933 30.4386 20.1577 30.8821 21.3931C31.3256 22.6285 31.3689 23.9722 31.0058 25.2336C30.6427 26.495 29.8917 27.6101 28.8593 28.4207C28.6313 28.597 28.4465 28.8231 28.3192 29.0817C28.192 29.3403 28.1255 29.6246 28.1249 29.9129V30.3816C28.1249 30.5474 28.0591 30.7064 27.9419 30.8236C27.8247 30.9408 27.6657 31.0066 27.4999 31.0066H22.4999C22.3342 31.0066 22.1752 30.9408 22.058 30.8236C21.9408 30.7064 21.8749 30.5474 21.8749 30.3816V29.9129C21.873 29.6268 21.8067 29.3448 21.6809 29.0879C21.5551 28.8309 21.3731 28.6056 21.1484 28.4285V28.4285Z" stroke="#4A4A68" stroke-width="1.5" stroke-linecap="round" stroke-linejoin="round"/>
</svg>
