<svg width="51" height="51" viewBox="0 0 51 51" fill="none" xmlns="http://www.w3.org/2000/svg">
<circle cx="25.6831" cy="25.5444" r="25" fill="#F8F8FF"/>
<path opacity="0.4" d="M24.3498 29.6281H18.5165" stroke="#4A4A68" stroke-width="1.5" stroke-linecap="round" stroke-linejoin="round"/>
<path fill-rule="evenodd" clip-rule="evenodd" d="M31.8498 29.6278C31.8498 30.7784 30.917 31.7111 29.7664 31.7111C28.6158 31.7111 27.6831 30.7784 27.6831 29.6278C27.6831 28.4763 28.6158 27.5444 29.7664 27.5444C30.917 27.5444 31.8498 28.4763 31.8498 29.6278Z" stroke="#4A4A68" stroke-width="1.5" stroke-linecap="round" stroke-linejoin="round"/>
<path opacity="0.4" d="M26.0165 20.4611H31.8498" stroke="#4A4A68" stroke-width="1.5" stroke-linecap="round" stroke-linejoin="round"/>
<path fill-rule="evenodd" clip-rule="evenodd" d="M18.5165 20.4613C18.5165 21.6127 19.4492 22.5446 20.5998 22.5446C21.7504 22.5446 22.6831 21.6127 22.6831 20.4613C22.6831 19.3107 21.7504 18.3779 20.5998 18.3779C19.4492 18.3779 18.5165 19.3107 18.5165 20.4613Z" stroke="#4A4A68" stroke-width="1.5" stroke-linecap="round" stroke-linejoin="round"/>
</svg>
