<svg width="31" height="30" viewBox="0 0 31 30" fill="none" xmlns="http://www.w3.org/2000/svg">
<rect x="0.5" width="30" height="30" rx="5" fill="white"/>
<path fill-rule="evenodd" clip-rule="evenodd" d="M22.7 15.1701C22.7 14.6383 22.6523 14.1269 22.5636 13.636H15.5V16.5371H19.5364C19.3625 17.4746 18.8341 18.2689 18.0398 18.8008V20.6826H20.4636C21.8818 19.3769 22.7 17.4542 22.7 15.1701Z" fill="#6C63FF"/>
<path fill-rule="evenodd" clip-rule="evenodd" d="M15.5 22.4998C17.525 22.4998 19.2227 21.8282 20.4636 20.6828L18.0398 18.8009C17.3682 19.2509 16.5091 19.5168 15.5 19.5168C13.5466 19.5168 11.8932 18.1975 11.3034 16.4248H8.79773V18.368C10.0318 20.8191 12.5682 22.4998 15.5 22.4998Z" fill="#34A853"/>
<path fill-rule="evenodd" clip-rule="evenodd" d="M11.3034 16.4255C11.1534 15.9755 11.0682 15.4948 11.0682 15.0005C11.0682 14.5062 11.1534 14.0255 11.3034 13.5755V11.6323H8.79773C8.28977 12.6448 8 13.7903 8 15.0005C8 16.2107 8.28977 17.3562 8.79773 18.3687L11.3034 16.4255Z" fill="#FBBC05"/>
<path fill-rule="evenodd" clip-rule="evenodd" d="M15.5 10.483C16.6011 10.483 17.5898 10.8614 18.367 11.6045L20.5182 9.45341C19.2193 8.24318 17.5216 7.5 15.5 7.5C12.5682 7.5 10.0318 9.18068 8.79773 11.6318L11.3034 13.575C11.8932 11.8023 13.5466 10.483 15.5 10.483Z" fill="#EA4335"/>
</svg>
