<svg width="61" height="60" viewBox="0 0 61 60" fill="none" xmlns="http://www.w3.org/2000/svg">
<rect x="0.5" width="60" height="60" rx="5" fill="#6C63FF"/>
<path d="M29.832 23.367L32.1523 21.0467C33.1347 20.1513 34.4244 19.6689 35.7532 19.6996C37.0821 19.7304 38.348 20.272 39.2879 21.2119C40.2278 22.1518 40.7694 23.4177 40.8002 24.7466C40.831 26.0755 40.3485 27.3651 39.4531 28.3475L36.1367 31.6522C35.6588 32.1319 35.0908 32.5126 34.4654 32.7723C33.8399 33.0321 33.1694 33.1658 32.4922 33.1658C31.815 33.1658 31.1444 33.0321 30.519 32.7723C29.8936 32.5126 29.3256 32.1319 28.8477 31.6522" stroke="white" stroke-width="2" stroke-linecap="round" stroke-linejoin="round"/>
<path opacity="0.4" d="M31.168 36.6328L28.8476 38.9531C27.8653 39.8485 26.5756 40.3309 25.2468 40.3001C23.9179 40.2694 22.652 39.7278 21.7121 38.7879C20.7722 37.848 20.2305 36.582 20.1998 35.2532C20.169 33.9243 20.6515 32.6347 21.5469 31.6523L24.8633 28.3476C25.3412 27.8678 25.9092 27.4872 26.5346 27.2274C27.16 26.9677 27.8306 26.834 28.5078 26.834C29.185 26.834 29.8556 26.9677 30.481 27.2274C31.1064 27.4872 31.6744 27.8678 32.1523 28.3476" stroke="white" stroke-width="2" stroke-linecap="round" stroke-linejoin="round"/>
</svg>
