<svg width="15" height="16" viewBox="0 0 15 16" fill="none" xmlns="http://www.w3.org/2000/svg">
<path d="M7.5 8.01709C8.53553 8.01709 9.375 7.17762 9.375 6.14209C9.375 5.10656 8.53553 4.26709 7.5 4.26709C6.46447 4.26709 5.625 5.10656 5.625 6.14209C5.625 7.17762 6.46447 8.01709 7.5 8.01709Z" stroke="#6C63FF" stroke-linecap="round" stroke-linejoin="round"/>
<path d="M12.1875 6.14209C12.1875 10.3608 7.5 13.6421 7.5 13.6421C7.5 13.6421 2.8125 10.3608 2.8125 6.14209C2.8125 4.89889 3.30636 3.7066 4.18544 2.82753C5.06451 1.94845 6.2568 1.45459 7.5 1.45459C8.7432 1.45459 9.93549 1.94845 10.8146 2.82753C11.6936 3.7066 12.1875 4.89889 12.1875 6.14209V6.14209Z" stroke="#6C63FF" stroke-linecap="round" stroke-linejoin="round"/>
</svg>
