<svg width="114" height="48" viewBox="0 0 114 48" fill="none" xmlns="http://www.w3.org/2000/svg">
<path d="M1.50003 31.9808C1.07123 31.9808 0.727457 31.8522 0.4687 31.5952C0.209944 31.3382 0.0805664 30.9894 0.0805664 30.5487V17.6605C0.0805664 17.2345 0.202551 16.9041 0.446521 16.6691C0.690491 16.4341 1.02687 16.3166 1.45567 16.3166H6.91173C8.58255 16.3166 9.88372 16.7315 10.8152 17.5613C11.7468 18.3912 12.2125 19.5552 12.2125 21.0533C12.2125 22.5514 11.7468 23.7191 10.8152 24.5562C9.88372 25.3934 8.58255 25.812 6.91173 25.812H2.94167V30.5487C2.94167 30.9894 2.81229 31.3382 2.55353 31.5952C2.29478 31.8522 1.94361 31.9808 1.50003 31.9808ZM6.55686 23.6309C8.52341 23.6309 9.50668 22.7791 9.50668 21.0753C9.50668 19.3716 8.52341 18.5197 6.55686 18.5197H2.94167V23.6309H6.55686ZM19.0215 32.0248C17.9126 32.0248 16.9404 31.7972 16.105 31.3419C15.2695 30.8865 14.6227 30.233 14.1643 29.3811C13.7059 28.5292 13.4767 27.5378 13.4767 26.4069C13.4767 25.2759 13.7059 24.2882 14.1643 23.4437C14.6227 22.5991 15.2695 21.9492 16.105 21.4939C16.9404 21.0386 17.9126 20.8109 19.0215 20.8109C20.1305 20.8109 21.1026 21.0386 21.9381 21.4939C22.7735 21.9492 23.4167 22.5991 23.8676 23.4437C24.3186 24.2882 24.5441 25.2759 24.5441 26.4069C24.5441 27.5378 24.3186 28.5292 23.8676 29.3811C23.4167 30.233 22.7735 30.8865 21.9381 31.3419C21.1026 31.7972 20.1305 32.0248 19.0215 32.0248ZM18.9993 29.8878C19.9013 29.8878 20.5888 29.594 21.062 29.0065C21.5351 28.419 21.7717 27.5525 21.7717 26.4069C21.7717 25.2759 21.5351 24.413 21.062 23.8182C20.5888 23.2234 19.9087 22.9259 19.0215 22.9259C18.1343 22.9259 17.4505 23.2234 16.9699 23.8182C16.4894 24.413 16.2491 25.2759 16.2491 26.4069C16.2491 27.5525 16.4857 28.419 16.9589 29.0065C17.432 29.594 18.1122 29.8878 18.9993 29.8878ZM28.2037 31.9808C27.8044 31.9808 27.4754 31.8669 27.2167 31.6393C26.9579 31.4116 26.8285 31.0848 26.8285 30.6589V17.5063C26.8285 17.0803 26.9579 16.7572 27.2167 16.5369C27.4754 16.3166 27.8044 16.2064 28.2037 16.2064C28.6029 16.2064 28.9356 16.3166 29.2017 16.5369C29.4679 16.7572 29.6009 17.0803 29.6009 17.5063V30.6589C29.6009 31.0848 29.4679 31.4116 29.2017 31.6393C28.9356 31.8669 28.6029 31.9808 28.2037 31.9808ZM40.0251 21.6481C40.1434 21.3838 40.3023 21.1891 40.502 21.0643C40.7016 20.9395 40.9197 20.877 41.1562 20.877C41.4963 20.877 41.8031 20.9909 42.0767 21.2185C42.3502 21.4462 42.487 21.7289 42.487 22.0667C42.487 22.2283 42.4426 22.3972 42.3539 22.5734L36.299 35.1753C36.0477 35.6747 35.6558 35.9243 35.1235 35.9243C34.7834 35.9243 34.484 35.8179 34.2253 35.6049C33.9665 35.3919 33.8371 35.1239 33.8371 34.8008C33.8371 34.6392 33.8815 34.4556 33.9702 34.25L35.4784 31.0995L31.3531 22.5734C31.2791 22.4266 31.2422 22.2577 31.2422 22.0667C31.2422 21.7289 31.3863 21.4425 31.6747 21.2075C31.963 20.9725 32.292 20.855 32.6616 20.855C32.913 20.855 33.1422 20.9174 33.3492 21.0423C33.5562 21.1671 33.7188 21.3617 33.8371 21.6261L36.9422 28.4337L40.0251 21.6481ZM57.0143 20.8109C58.1972 20.8109 59.1028 21.1598 59.7312 21.8574C60.3596 22.5551 60.6738 23.6823 60.6738 25.2392V30.6589C60.6738 31.0848 60.5445 31.4116 60.2857 31.6393C60.0269 31.8669 59.6906 31.9808 59.2766 31.9808C58.8773 31.9808 58.5483 31.8669 58.2896 31.6393C58.0308 31.4116 57.9015 31.0848 57.9015 30.6589V25.2392C57.9015 24.4314 57.7573 23.8549 57.469 23.5098C57.1806 23.1646 56.7407 22.992 56.1493 22.992C55.4248 22.992 54.8481 23.238 54.4193 23.7301C53.9905 24.2221 53.7761 24.8941 53.7761 25.7459V30.6589C53.7761 31.0848 53.6468 31.4116 53.388 31.6393C53.1292 31.8669 52.8003 31.9808 52.401 31.9808C52.0018 31.9808 51.6691 31.8669 51.403 31.6393C51.1368 31.4116 51.0037 31.0848 51.0037 30.6589V25.2392C51.0037 24.4314 50.8596 23.8549 50.5713 23.5098C50.2829 23.1646 49.843 22.992 49.2516 22.992C48.5271 22.992 47.9541 23.238 47.5327 23.7301C47.1113 24.2221 46.9006 24.8941 46.9006 25.7459V30.6589C46.9006 31.0848 46.7675 31.4116 46.5014 31.6393C46.2352 31.8669 45.9026 31.9808 45.5033 31.9808C45.1041 31.9808 44.7751 31.8669 44.5164 31.6393C44.2576 31.4116 44.1282 31.0848 44.1282 30.6589V22.1328C44.1282 21.7216 44.2613 21.4058 44.5275 21.1855C44.7936 20.9652 45.1263 20.855 45.5255 20.855C45.91 20.855 46.2242 20.9615 46.4681 21.1745C46.7121 21.3874 46.8341 21.6922 46.8341 22.0888V22.6175C47.1742 22.03 47.6288 21.582 48.1981 21.2736C48.7674 20.9652 49.4216 20.8109 50.1609 20.8109C51.7874 20.8109 52.8742 21.4866 53.4213 22.8378C53.7466 22.2209 54.2271 21.7289 54.8629 21.3617C55.4987 20.9945 56.2158 20.8109 57.0143 20.8109ZM68.1925 20.8109C69.7007 20.8109 70.8208 21.1818 71.5527 21.9235C72.2846 22.6652 72.6505 23.7925 72.6505 25.3053V30.6809C72.6505 31.0775 72.5323 31.3896 72.2957 31.6172C72.0591 31.8449 71.7338 31.9587 71.3198 31.9587C70.9354 31.9587 70.6212 31.8412 70.3772 31.6062C70.1332 31.3712 70.0112 31.0628 70.0112 30.6809V30.1962C69.7599 30.769 69.3643 31.217 68.8246 31.5401C68.285 31.8633 67.6602 32.0248 66.9505 32.0248C66.226 32.0248 65.568 31.8779 64.9766 31.5842C64.3851 31.2904 63.9194 30.8865 63.5793 30.3725C63.2392 29.8584 63.0692 29.2856 63.0692 28.654C63.0692 27.8609 63.2725 27.2367 63.6791 26.7814C64.0857 26.3261 64.7474 25.9956 65.6641 25.79C66.5809 25.5844 67.8451 25.4816 69.4568 25.4816H70.0112V24.9748C70.0112 24.2551 69.856 23.7301 69.5455 23.3996C69.235 23.0691 68.7322 22.9039 68.0373 22.9039C67.6085 22.9039 67.1723 22.9663 66.7287 23.0912C66.2851 23.216 65.7602 23.3959 65.154 23.6309C64.7696 23.8219 64.4886 23.9173 64.3112 23.9173C64.0451 23.9173 63.827 23.8219 63.6569 23.6309C63.4869 23.44 63.4019 23.1903 63.4019 22.8819C63.4019 22.6322 63.4647 22.4155 63.5904 22.232C63.7161 22.0484 63.9268 21.8758 64.2225 21.7142C64.74 21.4352 65.3573 21.2148 66.0744 21.0533C66.7916 20.8917 67.4976 20.8109 68.1925 20.8109ZM67.505 30.042C68.2443 30.042 68.8468 29.796 69.3126 29.304C69.7784 28.8119 70.0112 28.1767 70.0112 27.3983V26.9356H69.612C68.6213 26.9356 67.8525 26.9797 67.3054 27.0678C66.7583 27.1559 66.3665 27.3101 66.1299 27.5305C65.8933 27.7508 65.775 28.0519 65.775 28.4337C65.775 28.9037 65.9414 29.2893 66.274 29.5904C66.6067 29.8915 67.0171 30.042 67.505 30.042ZM81.5222 20.855C81.9066 20.8256 82.2097 20.9064 82.4315 21.0973C82.6533 21.2883 82.7642 21.5747 82.7642 21.9566C82.7642 22.3531 82.6681 22.6469 82.4759 22.8378C82.2837 23.0287 81.9362 23.1536 81.4335 23.2123L80.7681 23.2784C79.8957 23.3666 79.2562 23.6603 78.8496 24.1597C78.443 24.6591 78.2397 25.2833 78.2397 26.0323V30.6589C78.2397 31.0848 78.1066 31.4116 77.8404 31.6393C77.5743 31.8669 77.2416 31.9808 76.8424 31.9808C76.4432 31.9808 76.1142 31.8669 75.8554 31.6393C75.5967 31.4116 75.4673 31.0848 75.4673 30.6589V22.1328C75.4673 21.7216 75.5967 21.4058 75.8554 21.1855C76.1142 20.9652 76.4358 20.855 76.8202 20.855C77.2047 20.855 77.5152 20.9615 77.7517 21.1745C77.9883 21.3874 78.1066 21.6922 78.1066 22.0888V22.97C78.3875 22.3237 78.8052 21.8244 79.3597 21.4719C79.9142 21.1194 80.5315 20.9211 81.2117 20.877L81.5222 20.855ZM92.8335 20.855C93.2475 20.855 93.5802 20.9725 93.8316 21.2075C94.0829 21.4425 94.2086 21.7583 94.2086 22.1548V34.6465C94.2086 35.0284 94.0755 35.3368 93.8094 35.5718C93.5433 35.8068 93.2032 35.9243 92.7892 35.9243C92.3752 35.9243 92.0462 35.8105 91.8022 35.5829C91.5582 35.3552 91.4362 35.0578 91.4362 34.6906V30.1522C91.1109 30.7397 90.6415 31.1987 90.0279 31.5291C89.4142 31.8596 88.723 32.0248 87.9541 32.0248C87.0078 32.0248 86.1724 31.7972 85.4479 31.3419C84.7234 30.8865 84.1578 30.2403 83.7512 29.4031C83.3446 28.5659 83.1413 27.5892 83.1413 26.473C83.1413 25.3567 83.3446 24.369 83.7512 23.5098C84.1578 22.6505 84.7271 21.9859 85.459 21.5159C86.1909 21.0459 87.0226 20.8109 87.9541 20.8109C88.7378 20.8109 89.4364 20.9762 90.05 21.3066C90.6637 21.6371 91.1331 22.1034 91.4584 22.7056V22.1548C91.4584 21.7583 91.5841 21.4425 91.8355 21.2075C92.0868 20.9725 92.4195 20.855 92.8335 20.855ZM88.7082 29.8878C89.5806 29.8878 90.257 29.5867 90.7376 28.9845C91.2181 28.3823 91.4584 27.5305 91.4584 26.4289C91.4584 25.3126 91.2181 24.4534 90.7376 23.8512C90.257 23.2491 89.5732 22.948 88.686 22.948C87.8136 22.948 87.1335 23.2564 86.6456 23.8733C86.1576 24.4902 85.9136 25.3567 85.9136 26.473C85.9136 27.5598 86.1576 28.4007 86.6456 28.9955C87.1335 29.5904 87.821 29.8878 88.7082 29.8878Z" fill="#070717"/>
<path d="M108.811 16.8404C109.013 16.8721 109.206 16.9409 109.379 17.0429C111.993 18.5815 113.553 21.2358 113.553 24.1436C113.553 27.0514 111.993 29.7057 109.379 31.2443L83.8619 46.2618C82.4097 47.1167 80.7954 47.5459 79.1773 47.5459C77.7054 47.5459 76.2304 47.1908 74.8692 46.4779C72.0115 44.9812 70.3055 42.2459 70.3055 39.1612V32.803C70.7041 33.0986 71.1556 33.2571 71.6504 33.2571C72.531 33.2571 73.0794 32.7083 73.4165 31.7724V39.1614C73.4165 41.1635 74.5239 42.939 76.3787 43.9105C78.2333 44.8818 80.4153 44.8297 82.2155 43.7703L91.9017 38.0697C92.1999 38.2709 92.5453 38.386 92.9135 38.386C93.9533 38.386 94.8113 37.4687 94.9378 36.2829L107.732 28.7528C109.429 27.754 110.442 26.0312 110.442 24.1439C110.442 22.2566 109.429 20.5337 107.732 19.535C107.559 19.4329 107.409 19.2997 107.29 19.1428C107.171 18.9859 107.086 18.8085 107.04 18.6206C106.994 18.4327 106.988 18.2382 107.021 18.0479C107.055 17.8577 107.127 17.6756 107.236 17.512C107.344 17.3483 107.485 17.2064 107.651 17.0943C107.817 16.9821 108.005 16.902 108.204 16.8585C108.403 16.8149 108.61 16.8088 108.811 16.8404Z" fill="url(#paint0_linear_186_1595)"/>
<path d="M72.9939 21.8206C73.0058 21.1524 73.0749 20.6814 73.4165 20.4494V9.1261C73.4165 7.12401 74.5239 5.34853 76.3787 4.37697C78.2333 3.40566 80.4153 3.45779 82.2155 4.5172L97.0698 13.2595C97.2432 13.3615 97.4362 13.4303 97.6377 13.462C97.8392 13.4936 98.0454 13.4875 98.2444 13.444C98.4434 13.4004 98.6314 13.3203 98.7976 13.2082C98.9638 13.096 99.105 12.9541 99.2131 12.7905C99.3212 12.6269 99.3941 12.4447 99.4277 12.2545C99.4612 12.0643 99.4547 11.8697 99.4086 11.6818C99.3624 11.494 99.2775 11.3165 99.1588 11.1597C99.04 11.0028 98.8896 10.8695 98.7162 10.7675L83.8619 2.02542C81.0887 0.393348 77.7272 0.312344 74.869 1.80932C72.0115 3.30606 70.3055 6.04135 70.3055 9.1261V19.809C70.3735 19.7992 70.4439 19.7943 70.5169 19.7943C71.5852 19.7943 72.4185 20.5864 72.9939 21.8206Z" fill="url(#paint1_linear_186_1595)"/>
<defs>
<linearGradient id="paint0_linear_186_1595" x1="56.817" y1="0.741333" x2="56.817" y2="47.5459" gradientUnits="userSpaceOnUse">
<stop offset="0.296875" stop-color="#6C63FF"/>
<stop offset="1" stop-color="#C0E8FF"/>
</linearGradient>
<linearGradient id="paint1_linear_186_1595" x1="56.817" y1="0.741333" x2="56.817" y2="47.5459" gradientUnits="userSpaceOnUse">
<stop offset="0.296875" stop-color="#6C63FF"/>
<stop offset="1" stop-color="#C0E8FF"/>
</linearGradient>
</defs>
</svg>
