<svg width="21" height="21" viewBox="0 0 21 21" fill="none" xmlns="http://www.w3.org/2000/svg">
<path d="M10.4758 12.4194C11.5114 12.4194 12.3508 11.58 12.3508 10.5444C12.3508 9.5089 11.5114 8.66943 10.4758 8.66943C9.4403 8.66943 8.60083 9.5089 8.60083 10.5444C8.60083 11.58 9.4403 12.4194 10.4758 12.4194Z" fill="#6C63FF"/>
<path d="M4.22583 12.4194C5.26136 12.4194 6.10083 11.58 6.10083 10.5444C6.10083 9.5089 5.26136 8.66943 4.22583 8.66943C3.1903 8.66943 2.35083 9.5089 2.35083 10.5444C2.35083 11.58 3.1903 12.4194 4.22583 12.4194Z" fill="#6C63FF"/>
<path d="M16.7258 12.4194C17.7614 12.4194 18.6008 11.58 18.6008 10.5444C18.6008 9.5089 17.7614 8.66943 16.7258 8.66943C15.6903 8.66943 14.8508 9.5089 14.8508 10.5444C14.8508 11.58 15.6903 12.4194 16.7258 12.4194Z" fill="#6C63FF"/>
</svg>
