<svg width="20" height="20" viewBox="0 0 20 20" fill="none" xmlns="http://www.w3.org/2000/svg">
<path opacity="0.4" fill-rule="evenodd" clip-rule="evenodd" d="M13.612 2.29199H6.38783C3.87033 2.29199 2.29199 4.07449 2.29199 6.59699V13.4037C2.29199 15.9262 3.86283 17.7087 6.38783 17.7087H13.6112C16.137 17.7087 17.7087 15.9262 17.7087 13.4037V6.59699C17.7087 4.07449 16.137 2.29199 13.612 2.29199Z" stroke="#4A4A68" stroke-width="1.5" stroke-linecap="round" stroke-linejoin="round"/>
<path fill-rule="evenodd" clip-rule="evenodd" d="M8.9103 10.0004C8.9103 10.852 8.21946 11.5437 7.36696 11.5437C6.5153 11.5437 5.82446 10.852 5.82446 10.0004C5.82446 9.1487 6.5153 8.45703 7.36696 8.45703C8.21946 8.45703 8.9103 9.1487 8.9103 10.0004Z" stroke="#4A4A68" stroke-width="1.5" stroke-linecap="round" stroke-linejoin="round"/>
<path d="M8.91028 10H14.1753V11.5433" stroke="#4A4A68" stroke-width="1.5" stroke-linecap="round" stroke-linejoin="round"/>
<path d="M11.818 11.5433V10" stroke="#4A4A68" stroke-width="1.5" stroke-linecap="round" stroke-linejoin="round"/>
</svg>
