<svg width="25" height="26" viewBox="0 0 25 26" fill="none" xmlns="http://www.w3.org/2000/svg">
<path fill-rule="evenodd" clip-rule="evenodd" d="M9.53873 22.137V18.9425C9.53871 18.13 10.2011 17.4698 11.0218 17.4643H14.0282C14.8528 17.4643 15.5213 18.1261 15.5213 18.9425V22.147C15.5211 22.8368 16.0773 23.4007 16.774 23.4168H18.7782C20.7761 23.4168 22.3958 21.8134 22.3958 19.8354V10.7479C22.3851 9.96977 22.0161 9.23907 21.3937 8.76374L14.5393 3.29735C13.3384 2.34554 11.6314 2.34554 10.4306 3.29735L3.60624 8.77366C2.98148 9.24706 2.61182 9.97898 2.60413 10.7578V19.8354C2.60413 21.8134 4.22379 23.4168 6.22174 23.4168H8.22596C8.93991 23.4168 9.51868 22.8438 9.51868 22.137" fill="white"/>
<path d="M9.53873 22.137V18.9425C9.53871 18.13 10.2011 17.4698 11.0218 17.4643H14.0282C14.8528 17.4643 15.5213 18.1261 15.5213 18.9425V18.9425V22.147C15.5211 22.8368 16.0773 23.4007 16.774 23.4168H18.7782C20.7761 23.4168 22.3958 21.8134 22.3958 19.8354V19.8354V10.7479C22.3851 9.96977 22.0161 9.23907 21.3937 8.76374L14.5393 3.29735C13.3384 2.34554 11.6314 2.34554 10.4306 3.29735L3.60624 8.77366C2.98148 9.24706 2.61182 9.97898 2.60413 10.7578V19.8354C2.60413 21.8134 4.22379 23.4168 6.22174 23.4168H8.22596C8.93991 23.4168 9.51868 22.8438 9.51868 22.137V22.137" stroke="white" stroke-width="2" stroke-linecap="round" stroke-linejoin="round"/>
</svg>
