<svg width="25" height="26" viewBox="0 0 25 26" fill="none" xmlns="http://www.w3.org/2000/svg">
<path opacity="0.4" d="M2.92114 16.1665C2.92114 16.1665 3.06906 17.9769 3.10343 18.5478C3.14927 19.3134 3.4451 20.1686 3.93885 20.7623C4.63573 21.604 5.45656 21.9009 6.55239 21.903C7.84093 21.905 17.2107 21.905 18.4993 21.903C19.5951 21.9009 20.4159 21.604 21.1128 20.7623C21.6066 20.1686 21.9024 19.3134 21.9493 18.5478C21.9826 17.9769 22.1305 16.1665 22.1305 16.1665" stroke="#FAFCFE" stroke-width="2" stroke-linecap="round" stroke-linejoin="round"/>
<path d="M8.8501 5.59613V5.20967C8.8501 3.93883 9.87926 2.90967 11.1501 2.90967H13.8397C15.1095 2.90967 16.1397 3.93883 16.1397 5.20967L16.1407 5.59613" stroke="#FAFCFE" stroke-width="2" stroke-linecap="round" stroke-linejoin="round"/>
<path d="M12.495 17.4177V16.0698" stroke="#FAFCFE" stroke-width="2" stroke-linecap="round" stroke-linejoin="round"/>
<path fill-rule="evenodd" clip-rule="evenodd" d="M2.86462 8.78307V12.3945C4.86254 13.7122 7.25629 14.6352 9.88337 15.0008C10.198 13.8539 11.2323 13.0133 12.4896 13.0133C13.7271 13.0133 14.7823 13.8539 15.0761 15.0112C17.7136 14.6456 20.1167 13.7227 22.125 12.3945V8.78307C22.125 7.01849 20.7052 5.59766 18.9407 5.59766H6.05942C4.29483 5.59766 2.86462 7.01849 2.86462 8.78307Z" fill="white" stroke="#FAFCFE" stroke-width="2" stroke-linecap="round" stroke-linejoin="round"/>
</svg>
