<svg width="24" height="25" viewBox="0 0 24 25" fill="none" xmlns="http://www.w3.org/2000/svg">
<path fill-rule="evenodd" clip-rule="evenodd" d="M20.8067 8.57894L20.1842 7.49884C19.6577 6.58492 18.4907 6.26964 17.5755 6.79404V6.79404C17.1399 7.05067 16.6201 7.12348 16.1307 6.99641C15.6413 6.86934 15.2226 6.55284 14.9668 6.11669C14.8023 5.83947 14.7139 5.52372 14.7105 5.20136V5.20136C14.7254 4.68454 14.5304 4.18372 14.17 3.81299C13.8096 3.44226 13.3145 3.23319 12.7975 3.2334H11.5435C11.037 3.23339 10.5513 3.43524 10.194 3.79427C9.83669 4.1533 9.63717 4.63991 9.63961 5.14644V5.14644C9.6246 6.19225 8.77248 7.03213 7.72657 7.03203C7.40421 7.02868 7.08846 6.94027 6.81123 6.77573V6.77573C5.89606 6.25134 4.72911 6.56662 4.20254 7.48054L3.53435 8.57894C3.00841 9.49172 3.3194 10.6579 4.23 11.1876V11.1876C4.8219 11.5294 5.18653 12.1609 5.18653 12.8444C5.18653 13.5279 4.8219 14.1594 4.23 14.5011V14.5011C3.32056 15.0273 3.00923 16.1907 3.53435 17.1007V17.1007L4.16593 18.1899C4.41265 18.6351 4.8266 18.9636 5.31619 19.1028C5.80578 19.2419 6.33064 19.1802 6.77462 18.9313V18.9313C7.21108 18.6767 7.73119 18.6069 8.21934 18.7375C8.70749 18.8682 9.12324 19.1884 9.37416 19.627C9.5387 19.9042 9.62711 20.22 9.63046 20.5423V20.5423C9.63046 21.5989 10.487 22.4554 11.5435 22.4554H12.7975C13.8505 22.4554 14.7055 21.6044 14.7105 20.5515V20.5515C14.7081 20.0434 14.9089 19.5553 15.2682 19.196C15.6275 18.8368 16.1155 18.636 16.6236 18.6384C16.9452 18.647 17.2596 18.7351 17.5389 18.8947V18.8947C18.4517 19.4207 19.6179 19.1097 20.1476 18.1991V18.1991L20.8067 17.1007C21.0618 16.6628 21.1318 16.1413 21.0012 15.6517C20.8706 15.1621 20.5502 14.7447 20.111 14.492V14.492C19.6718 14.2393 19.3514 13.8219 19.2208 13.3323C19.0902 12.8426 19.1603 12.3211 19.4154 11.8833C19.5812 11.5937 19.8214 11.3535 20.111 11.1876V11.1876C21.0161 10.6582 21.3264 9.49882 20.8067 8.58809V8.58809V8.57894Z" stroke="#070717" stroke-width="1.5" stroke-linecap="round" stroke-linejoin="round"/>
<circle opacity="0.4" cx="12.175" cy="12.8442" r="2.63616" stroke="#070717" stroke-width="1.5" stroke-linecap="round" stroke-linejoin="round"/>
</svg>
