<svg width="51" height="51" viewBox="0 0 51 51" fill="none" xmlns="http://www.w3.org/2000/svg">
<circle cx="25.6831" cy="25.5444" r="25" fill="#F8F8FF"/>
<path fill-rule="evenodd" clip-rule="evenodd" d="M33.022 21.8975L32.5033 20.9974C32.0645 20.2358 31.0921 19.9731 30.3294 20.4101V20.4101C29.9664 20.6239 29.5332 20.6846 29.1254 20.5787C28.7176 20.4728 28.3686 20.2091 28.1555 19.8456C28.0184 19.6146 27.9447 19.3515 27.9419 19.0828V19.0828C27.9543 18.6522 27.7918 18.2348 27.4915 17.9259C27.1912 17.6169 26.7786 17.4427 26.3477 17.4429H25.3027C24.8806 17.4429 24.4759 17.6111 24.1781 17.9103C23.8804 18.2095 23.7141 18.615 23.7162 19.0371V19.0371C23.7036 19.9086 22.9935 20.6085 22.122 20.6084C21.8533 20.6056 21.5902 20.5319 21.3592 20.3948V20.3948C20.5965 19.9578 19.6241 20.2206 19.1853 20.9822L18.6284 21.8975C18.1902 22.6581 18.4493 23.63 19.2081 24.0714V24.0714C19.7014 24.3562 20.0053 24.8825 20.0053 25.452C20.0053 26.0216 19.7014 26.5479 19.2081 26.8327V26.8327C18.4503 27.2711 18.1908 28.2406 18.6284 28.9989V28.9989L19.1548 29.9066C19.3604 30.2776 19.7053 30.5514 20.1133 30.6673C20.5213 30.7833 20.9587 30.7319 21.3287 30.5245V30.5245C21.6924 30.3123 22.1258 30.2541 22.5326 30.363C22.9394 30.4718 23.2858 30.7387 23.4949 31.1042C23.6321 31.3352 23.7057 31.5983 23.7085 31.867V31.867C23.7085 32.7474 24.4223 33.4612 25.3027 33.4612H26.3477C27.2252 33.4612 27.9377 32.7521 27.9419 31.8746V31.8746C27.9399 31.4512 28.1072 31.0445 28.4066 30.7451C28.706 30.4457 29.1127 30.2784 29.5361 30.2804C29.8041 30.2876 30.0662 30.3609 30.2989 30.494V30.494C31.0596 30.9323 32.0314 30.6731 32.4728 29.9143V29.9143L33.022 28.9989C33.2346 28.6341 33.293 28.1995 33.1841 27.7915C33.0753 27.3834 32.8084 27.0356 32.4423 26.825V26.825C32.0763 26.6144 31.8093 26.2666 31.7005 25.8586C31.5917 25.4506 31.65 25.016 31.8626 24.6511C32.0008 24.4098 32.201 24.2096 32.4423 24.0714V24.0714C33.1966 23.6302 33.4552 22.6641 33.022 21.9051V21.9051V21.8975Z" stroke="#130F26" stroke-width="1.5" stroke-linecap="round" stroke-linejoin="round"/>
<ellipse opacity="0.4" cx="25.829" cy="25.4522" rx="2.1968" ry="2.1968" stroke="#130F26" stroke-width="1.5" stroke-linecap="round" stroke-linejoin="round"/>
</svg>
