<svg width="30" height="31" viewBox="0 0 30 31" fill="none" xmlns="http://www.w3.org/2000/svg">
<circle cx="15" cy="15.5" r="15" fill="#4A4A68"/>
<path d="M14.9453 12.9221C15.2937 12.5772 15.7629 12.3818 16.2531 12.3774C16.7433 12.3731 17.2158 12.56 17.5703 12.8986C18.3282 13.6252 18.3125 14.8596 17.5625 15.6096L12.3282 20.6799C12.2097 20.7973 12.1425 20.9568 12.141 21.1236C12.1396 21.2904 12.204 21.451 12.3203 21.5705L14.5625 23.8127C14.6797 23.9288 14.8375 23.9945 15.0023 23.996C15.1672 23.9974 15.3262 23.9345 15.4453 23.8205L20.6328 18.7268C23.0703 16.2893 23.1407 12.3205 20.7266 9.86738C20.1482 9.27901 19.4589 8.811 18.6987 8.49034C17.9385 8.16968 17.1223 8.00272 16.2972 7.99908C15.4722 7.99545 14.6545 8.15522 13.8915 8.46918C13.1285 8.78314 12.4352 9.24506 11.8516 9.82832L6.68753 15.0549C6.57065 15.172 6.505 15.3308 6.505 15.4963C6.505 15.6618 6.57065 15.8205 6.68753 15.9377L8.92972 18.1799C9.04924 18.2962 9.20985 18.3606 9.37664 18.3592C9.54342 18.3577 9.70288 18.2905 9.82034 18.1721L14.9453 12.9221Z" stroke="white" stroke-linecap="round" stroke-linejoin="round"/>
<path d="M14.9062 18.1875L18.0156 21.2969" stroke="white" stroke-linecap="round" stroke-linejoin="round"/>
<path d="M9.21875 12.5L12.3203 15.6094" stroke="white" stroke-linecap="round" stroke-linejoin="round"/>
</svg>
