<svg width="16" height="15" viewBox="0 0 16 15" fill="none" xmlns="http://www.w3.org/2000/svg">
<path d="M3.69336 11.8066C3.1543 11.2676 3.51172 10.1367 3.23633 9.47461C2.96094 8.8125 1.90625 8.23242 1.90625 7.5C1.90625 6.76758 2.94922 6.21094 3.23633 5.52539C3.52344 4.83984 3.1543 3.73242 3.69336 3.19336C4.23242 2.6543 5.36328 3.01172 6.02539 2.73633C6.6875 2.46094 7.26758 1.40625 8 1.40625C8.73242 1.40625 9.28906 2.44922 9.97461 2.73633C10.6602 3.02344 11.7676 2.6543 12.3066 3.19336C12.8457 3.73242 12.4883 4.86328 12.7637 5.52539C13.0391 6.1875 14.0938 6.76758 14.0938 7.5C14.0938 8.23242 13.0508 8.78906 12.7637 9.47461C12.4766 10.1602 12.8457 11.2676 12.3066 11.8066C11.7676 12.3457 10.6367 11.9883 9.97461 12.2637C9.3125 12.5391 8.73242 13.5938 8 13.5938C7.26758 13.5938 6.71094 12.5508 6.02539 12.2637C5.33984 11.9766 4.23242 12.3457 3.69336 11.8066Z" fill="white"/>
<path d="M10.5781 6.09375L7.13867 9.375L5.42188 7.73438" stroke="#C9CBD2" stroke-linecap="round" stroke-linejoin="round"/>
</svg>
