<svg width="354" height="303" viewBox="0 0 354 303" fill="none" xmlns="http://www.w3.org/2000/svg">
<path d="M159.333 56.7939C159.333 56.7939 140.675 77.0977 107.853 86.1227C107.853 86.1227 49.4572 103.263 41.1639 133.727C41.1639 133.727 18.7059 181.989 55.6751 230.126C55.6751 230.126 107.608 287.324 209.632 278.046C210.754 277.943 211.878 277.883 213.003 277.869C221.823 277.767 268.753 275.366 306.46 237.292C324.551 219.025 335.063 193.516 335.935 166.672C337.187 128.013 331.569 66.1827 287.872 35.718C287.884 35.7491 223.617 -16.5146 159.333 56.7939Z" fill="#6C63FF"/>
<path opacity="0.7" d="M159.333 56.7939C159.333 56.7939 140.675 77.0977 107.853 86.1227C107.853 86.1227 49.4572 103.263 41.1639 133.727C41.1639 133.727 18.7059 181.989 55.6751 230.126C55.6751 230.126 107.608 287.324 209.632 278.046C210.754 277.943 211.878 277.883 213.003 277.869C221.823 277.767 268.753 275.366 306.46 237.292C324.551 219.025 335.063 193.516 335.935 166.672C337.187 128.013 331.569 66.1827 287.872 35.718C287.884 35.7491 223.617 -16.5146 159.333 56.7939Z" fill="white"/>
<path d="M24.9768 147.309C24.2559 147.702 23.7075 148.389 23.4522 149.221C23.1969 150.053 23.2554 150.961 23.6149 151.746L49.5061 208.247C49.9619 209.221 50.7528 209.96 51.7066 210.302C52.6604 210.645 53.6998 210.563 54.5987 210.075L90.3937 190.619C90.8452 190.376 91.2479 190.038 91.5785 189.624C91.909 189.21 92.1609 188.729 92.3194 188.209C92.4779 187.688 92.5399 187.139 92.5019 186.592C92.4639 186.046 92.3266 185.512 92.098 185.024L66.37 129.064C65.9508 128.155 65.218 127.464 64.3316 127.141C63.4453 126.818 62.4776 126.891 61.6402 127.343L24.9768 147.309Z" fill="#B3B3B3"/>
<path d="M26.7015 152.159L51.08 205.976C51.2563 206.366 51.5017 206.715 51.8023 207.003C52.1029 207.29 52.4526 207.51 52.8315 207.649C53.2103 207.789 53.6108 207.846 54.01 207.817C54.4091 207.788 54.799 207.673 55.1573 207.48L88.0207 189.776C88.7375 189.391 89.286 188.714 89.547 187.891C89.8081 187.069 89.7607 186.168 89.4151 185.383L65.3914 130.83C65.2134 130.427 64.9632 130.067 64.6553 129.77C64.3475 129.474 63.9883 129.248 63.5989 129.105C63.2095 128.962 62.7978 128.905 62.3879 128.937C61.978 128.97 61.5783 129.092 61.2122 129.295L28.0634 147.691C27.342 148.091 26.7946 148.784 26.5397 149.621C26.2848 150.457 26.3429 151.369 26.7015 152.159Z" fill="#E6E6E6"/>
<path d="M37.8669 146.592L29.5487 150.865C29.0559 151.119 28.845 151.759 29.0776 152.295L33.3976 162.254C33.6303 162.79 34.2184 163.019 34.7112 162.766L43.0294 158.493C43.5222 158.24 43.7331 157.6 43.5005 157.064L39.1804 147.105C38.9478 146.569 38.3597 146.339 37.8669 146.592Z" fill="#D3D3D3"/>
<path d="M63.5143 133.767L41.0859 146.391L41.3463 146.939L63.7747 134.314L63.5143 133.767Z" fill="#D3D3D3"/>
<path d="M65.0634 136.286L42.635 148.91L42.8954 149.458L65.3237 136.834L65.0634 136.286Z" fill="#D3D3D3"/>
<path d="M66.2227 139.234L43.7943 151.858L44.0547 152.406L66.483 139.781L66.2227 139.234Z" fill="#D3D3D3"/>
<path d="M67.7729 142.599L45.3446 155.224L45.605 155.772L68.0333 143.147L67.7729 142.599Z" fill="#D3D3D3"/>
<path d="M59.264 157.33L36.8357 169.954L37.0961 170.502L59.5244 157.877L59.264 157.33Z" fill="#D3D3D3"/>
<path d="M60.8131 159.853L38.3848 172.478L38.6451 173.025L61.0735 160.401L60.8131 159.853Z" fill="#D3D3D3"/>
<path d="M61.9724 162.801L39.5441 175.425L39.8044 175.973L62.2328 163.349L61.9724 162.801Z" fill="#D3D3D3"/>
<path d="M63.519 166.169L41.0907 178.793L41.3511 179.341L63.7794 166.717L63.519 166.169Z" fill="#D3D3D3"/>
<path d="M65.8387 170.373L43.4104 182.998L43.6708 183.545L66.0991 170.921L65.8387 170.373Z" fill="#D3D3D3"/>
<path d="M67.3879 172.897L44.9596 185.521L45.22 186.069L67.6483 173.445L67.3879 172.897Z" fill="#D3D3D3"/>
<path d="M68.5431 175.845L46.1147 188.469L46.3751 189.017L68.8035 176.392L68.5431 175.845Z" fill="#D3D3D3"/>
<path d="M70.0934 179.211L47.665 191.835L47.9254 192.383L70.3538 179.758L70.0934 179.211Z" fill="#D3D3D3"/>
<path d="M72.3229 161.53L72.9264 162.2L73.8968 161.157L73.3015 160.474C73.5798 160.003 73.7555 159.468 73.8152 158.912H74.7367L74.6878 157.39H73.7051C73.5921 156.958 73.4129 156.55 73.1751 156.183L73.9049 155.398L72.8937 154.298L72.1354 155.11C71.7628 154.842 71.3482 154.651 70.9122 154.546V153.561L69.5218 153.508V154.533C69.1184 154.619 68.7329 154.784 68.3842 155.021L67.7685 154.338L66.7777 155.38L67.3812 156.046C67.1294 156.447 66.9559 156.9 66.8715 157.377H65.791L65.844 158.894H66.8634C66.9495 159.367 67.1154 159.818 67.3526 160.225L66.688 160.94L67.6829 162.049L68.323 161.361C68.6906 161.654 69.1056 161.87 69.5462 161.996V162.919L70.9366 162.976V162.089C71.4316 162.019 71.9055 161.828 72.3229 161.53ZM68.6207 160.11C68.3032 159.715 68.1001 159.227 68.0368 158.707C67.9735 158.187 68.0528 157.658 68.2648 157.187C68.4768 156.715 68.812 156.323 69.2284 156.058C69.6447 155.794 70.1237 155.669 70.605 155.7C71.0863 155.73 71.5486 155.915 71.9337 156.231C72.3188 156.546 72.6097 156.979 72.7697 157.474C72.9297 157.969 72.9518 158.504 72.8331 159.012C72.7145 159.521 72.4604 159.98 72.1027 160.332C71.6134 160.804 70.9722 161.045 70.3196 161.004C69.6669 160.962 69.056 160.641 68.6207 160.11Z" fill="#D3D3D3"/>
<path d="M65.2814 156.516L65.7217 156.92L66.3089 156.161L65.8604 155.748C66.0183 155.414 66.1047 155.046 66.1131 154.67L66.7288 154.613L66.6065 153.601L65.9501 153.667C65.8545 153.387 65.7167 153.126 65.5423 152.895L65.9623 152.323L65.2365 151.653L64.7758 152.248C64.5095 152.094 64.2191 151.996 63.9195 151.959L63.8625 151.302L62.9287 151.36L62.994 152.043C62.7288 152.128 62.48 152.265 62.2601 152.447L61.8116 152.03L61.2244 152.793L61.6648 153.197C61.5232 153.479 61.4331 153.788 61.3997 154.107L60.6821 154.178L60.8045 155.185L61.4813 155.118C61.5655 155.439 61.7038 155.74 61.889 156.006L61.4813 156.529L62.2071 157.199L62.6148 156.698C62.8755 156.868 63.1631 156.984 63.4629 157.04L63.5159 157.652L64.4496 157.599L64.3966 157.008C64.7218 156.919 65.0242 156.75 65.2814 156.516ZM62.733 155.824C62.5009 155.583 62.3394 155.272 62.2686 154.932C62.1978 154.591 62.2209 154.235 62.3351 153.909C62.4492 153.582 62.6493 153.3 62.9103 153.097C63.1713 152.894 63.4816 152.779 63.8023 152.766C64.1231 152.754 64.44 152.845 64.7134 153.028C64.9868 153.211 65.2045 153.478 65.3394 153.795C65.4742 154.111 65.5201 154.465 65.4713 154.81C65.4226 155.155 65.2813 155.477 65.0653 155.735C64.9189 155.91 64.7418 156.051 64.5445 156.151C64.3472 156.25 64.1336 156.306 63.9163 156.314C63.699 156.322 63.4824 156.283 63.2792 156.199C63.076 156.115 62.8903 155.987 62.733 155.824Z" fill="#D3D3D3"/>
<path d="M52.4622 148.547C52.4622 148.547 53.6242 148.103 54.3989 150.65L53.2491 151.276L52.4622 148.547Z" fill="#070717"/>
<path opacity="0.2" d="M52.4622 148.547C52.4622 148.547 53.6242 148.103 54.3989 150.65L53.2491 151.276L52.4622 148.547Z" fill="black"/>
<path d="M19.2155 169.792C18.4946 170.184 17.9463 170.872 17.691 171.704C17.4356 172.535 17.4942 173.444 17.8537 174.229L43.7448 230.725C44.2014 231.7 44.9931 232.438 45.9475 232.78C46.902 233.123 47.9421 233.041 48.8415 232.553L84.6324 213.097C85.0808 212.855 85.481 212.519 85.81 212.108C86.139 211.698 86.3905 211.221 86.5499 210.704C86.7093 210.188 86.7736 209.643 86.7392 209.099C86.7047 208.556 86.5721 208.025 86.349 207.537L60.6169 151.56C60.1971 150.649 59.4624 149.957 58.5742 149.635C57.686 149.313 56.7167 149.388 55.879 149.843L19.2155 169.792Z" fill="#6C63FF"/>
<path d="M20.9402 174.655L45.3186 228.471C45.4953 228.862 45.741 229.21 46.0417 229.497C46.3423 229.784 46.692 230.004 47.0707 230.143C47.4494 230.283 47.8497 230.34 48.2487 230.311C48.6477 230.283 49.0375 230.168 49.396 229.975L82.2593 212.272C82.9762 211.887 83.5246 211.209 83.7857 210.387C84.0467 209.565 83.9993 208.664 83.6538 207.879L59.6301 153.326C59.4521 152.923 59.2018 152.562 58.894 152.266C58.5861 151.97 58.227 151.743 57.8376 151.6C57.4482 151.457 57.0364 151.4 56.6265 151.433C56.2166 151.466 55.8169 151.587 55.4508 151.791L22.302 170.187C21.5807 170.587 21.0333 171.28 20.7784 172.116C20.5235 172.953 20.5816 173.865 20.9402 174.655Z" fill="#E6E6E6"/>
<path d="M32.1036 169.088L23.7854 173.361C23.2926 173.614 23.0816 174.254 23.3143 174.791L27.6343 184.749C27.867 185.286 28.455 185.515 28.9478 185.262L37.2661 180.989C37.7589 180.736 37.9698 180.096 37.7372 179.56L33.4171 169.601C33.1845 169.064 32.5964 168.835 32.1036 169.088Z" fill="#D3D3D3"/>
<path d="M57.7539 156.26L35.3256 168.884L35.5859 169.432L58.0143 156.808L57.7539 156.26Z" fill="#D3D3D3"/>
<path d="M59.3031 158.784L36.8748 171.408L37.1351 171.956L59.5635 159.332L59.3031 158.784Z" fill="#D3D3D3"/>
<path d="M60.4623 161.731L38.0339 174.356L38.2943 174.903L60.7227 162.279L60.4623 161.731Z" fill="#D3D3D3"/>
<path d="M62.0126 165.097L39.5842 177.721L39.8446 178.269L62.273 165.645L62.0126 165.097Z" fill="#D3D3D3"/>
<path d="M53.5037 179.823L31.0753 192.447L31.3357 192.995L53.764 180.371L53.5037 179.823Z" fill="#D3D3D3"/>
<path d="M55.0529 182.347L32.6245 194.971L32.8849 195.519L55.3132 182.894L55.0529 182.347Z" fill="#D3D3D3"/>
<path d="M56.212 185.294L33.7837 197.918L34.0441 198.466L56.4724 185.842L56.212 185.294Z" fill="#D3D3D3"/>
<path d="M57.7568 188.658L35.3285 201.282L35.5889 201.83L58.0172 189.206L57.7568 188.658Z" fill="#D3D3D3"/>
<path d="M60.0785 192.867L37.6501 205.491L37.9105 206.039L60.3389 193.414L60.0785 192.867Z" fill="#D3D3D3"/>
<path d="M61.6276 195.39L39.1992 208.015L39.4596 208.562L61.8879 195.938L61.6276 195.39Z" fill="#D3D3D3"/>
<path d="M62.7869 198.338L40.3585 210.962L40.6189 211.51L63.0472 198.886L62.7869 198.338Z" fill="#D3D3D3"/>
<path d="M64.333 201.704L41.9047 214.328L42.165 214.876L64.5934 202.252L64.333 201.704Z" fill="#D3D3D3"/>
<path d="M66.5616 184.026L67.1651 184.696L68.1355 183.653L67.5198 182.97C67.7981 182.498 67.9738 181.964 68.0335 181.408H68.955L68.9061 179.89H67.9234C67.8104 179.458 67.6312 179.05 67.3934 178.683L68.1232 177.898L67.1284 176.793L66.37 177.605C65.9974 177.337 65.5828 177.146 65.1468 177.042V176.057L63.7564 176.003V177.037C63.353 177.123 62.9675 177.288 62.6188 177.525L62.0031 176.842L61.0327 177.885L61.6362 178.55C61.3844 178.951 61.2109 179.404 61.1265 179.881H60.046L60.099 181.399H61.1184C61.2045 181.872 61.3704 182.323 61.6076 182.73L60.943 183.444L61.9379 184.554L62.578 183.866C62.9456 184.159 63.3606 184.374 63.8012 184.5V185.423L65.1916 185.481V184.593C65.6816 184.518 66.1498 184.324 66.5616 184.026ZM62.8594 182.606C62.5419 182.211 62.3388 181.723 62.2755 181.203C62.2121 180.682 62.2915 180.153 62.5035 179.682C62.7155 179.211 63.0507 178.818 63.4671 178.554C63.8834 178.289 64.3624 178.165 64.8437 178.195C65.325 178.226 65.7873 178.411 66.1724 178.726C66.5575 179.042 66.8484 179.474 67.0084 179.969C67.1684 180.464 67.1905 181 67.0718 181.508C66.9532 182.017 66.6991 182.476 66.3414 182.828C65.8521 183.299 65.2109 183.541 64.5583 183.499C63.9056 183.458 63.2947 183.136 62.8594 182.606Z" fill="#D3D3D3"/>
<path d="M59.5201 179.012L59.9604 179.415L60.5476 178.657L60.099 178.244C60.257 177.91 60.3434 177.541 60.3518 177.166L60.9675 177.108L60.8452 176.097L60.1887 176.163C60.0932 175.883 59.9554 175.622 59.781 175.391L60.2214 174.819L59.4956 174.149L59.0308 174.743C58.7645 174.59 58.4741 174.492 58.1745 174.455L58.1175 173.798L57.1837 173.856L57.249 174.539C56.9838 174.624 56.735 174.761 56.5151 174.943L56.0666 174.526L55.4794 175.289L55.9198 175.693C55.7806 175.968 55.6907 176.269 55.6547 176.58L54.9371 176.651L55.0594 177.658L55.7363 177.592C55.8205 177.913 55.9588 178.214 56.144 178.479L55.7363 179.003L56.4621 179.673L56.8494 179.171C57.1101 179.342 57.3977 179.458 57.6975 179.513L57.7505 180.125L58.6842 180.068L58.6312 179.482C58.9561 179.4 59.2598 179.239 59.5201 179.012ZM56.9921 178.32C56.76 178.078 56.5984 177.768 56.5276 177.427C56.4569 177.087 56.48 176.731 56.5941 176.405C56.7083 176.078 56.9084 175.796 57.1694 175.592C57.4304 175.389 57.7407 175.274 58.0614 175.262C58.3822 175.25 58.6991 175.341 58.9725 175.524C59.2459 175.707 59.4636 175.973 59.5984 176.29C59.7333 176.607 59.7792 176.96 59.7304 177.306C59.6817 177.651 59.5404 177.973 59.3244 178.231C59.178 178.406 59.0009 178.547 58.8036 178.646C58.6063 178.746 58.3927 178.801 58.1754 178.81C57.9581 178.818 57.7415 178.779 57.5383 178.695C57.3351 178.61 57.1494 178.483 56.9921 178.32Z" fill="#D3D3D3"/>
<path d="M52.2827 155.899L54.3988 155.278L52.4621 148.547L50.4153 149.435L52.2827 155.899Z" fill="#070717"/>
<path d="M170.155 181.789H186.807V258.794H170.155C169.811 258.794 169.481 258.645 169.238 258.381C168.995 258.116 168.858 257.757 168.858 257.383V183.2C168.858 182.826 168.995 182.467 169.238 182.203C169.481 181.938 169.811 181.789 170.155 181.789Z" fill="#AAAAAA"/>
<path d="M270.559 182.362C270.505 182.362 270.452 182.353 270.4 182.335C270.273 182.288 270.168 182.189 270.107 182.059C270.046 181.929 270.034 181.778 270.074 181.638L278.335 153.863C281.688 142.592 282.831 130.681 281.69 118.899C280.814 110.154 278.926 104.727 278.905 104.674C278.881 104.606 278.87 104.534 278.871 104.461C278.873 104.388 278.888 104.316 278.915 104.25C278.943 104.184 278.982 104.124 279.03 104.074C279.079 104.024 279.136 103.985 279.199 103.959C279.325 103.909 279.464 103.914 279.587 103.973C279.71 104.033 279.806 104.143 279.856 104.279C279.933 104.505 281.813 109.892 282.71 118.779C283.232 124.041 283.297 129.344 282.905 134.619C282.407 141.277 281.2 147.849 279.309 154.204L271.053 181.958C271.022 182.075 270.958 182.177 270.868 182.25C270.779 182.323 270.671 182.362 270.559 182.362Z" fill="#070717"/>
<path d="M117.581 177.592L112.835 218.399L124.774 261.567L146.592 258.794L148.512 238.597L149.425 207.577L146.592 184.443L132.121 171.269L119.804 169.166L117.581 177.592Z" fill="#6C63FF"/>
<path d="M171.696 158.34L168.096 160.177C167.856 160.3 167.637 160.467 167.447 160.669C167.069 161.07 166.827 161.599 166.762 162.169L166.591 163.655C166.541 164.091 166.388 164.505 166.147 164.857C165.907 165.209 165.586 165.488 165.217 165.665C162.958 166.757 158.135 169.588 156.096 174.659L150.298 184.314C150.004 184.939 149.854 185.632 149.862 186.335C149.87 187.037 150.035 187.726 150.343 188.343C151.625 190.867 152.723 193.498 153.625 196.21L154.155 197.776C153.968 197.634 147.905 192.962 142.951 191.178C142.951 191.178 134.824 188.96 131.73 178L125.32 159.697L125.728 158.34C130.179 155.992 134.774 153.985 139.481 152.332L146.441 149.807C146.441 149.807 158.726 144.461 160.557 139.953C160.59 139.867 160.639 139.79 160.701 139.725C160.762 139.661 160.835 139.61 160.915 139.577C160.995 139.544 161.081 139.529 161.166 139.532C161.252 139.536 161.335 139.558 161.413 139.598C163.684 140.787 171.158 145.623 171.696 158.34Z" fill="#070717"/>
<path d="M102.357 164.267L96.5422 159.067C97.3389 157.91 98.3563 156.953 99.5246 156.264C100.693 155.575 101.985 155.169 103.311 155.074C103.311 155.074 102.744 160.9 102.357 164.267Z" fill="#070717"/>
<path opacity="0.3" d="M102.357 164.267L96.5422 159.067C97.3389 157.91 98.3563 156.953 99.5246 156.264C100.693 155.575 101.985 155.169 103.311 155.074C103.311 155.074 102.744 160.9 102.357 164.267Z" fill="black"/>
<path d="M110.079 152.869C114.336 154.244 115.408 151.147 115.408 151.147C121.116 157.594 125.716 158.34 125.716 158.34C123.18 166.033 126.715 171.713 126.715 171.713C127.098 175.919 125.182 177.605 125.182 177.605C121.328 180.968 117.435 177.605 117.435 177.605C113.765 174.868 102.348 164.294 102.348 164.294C102.756 161.769 102.919 155.096 102.919 155.096C102.919 155.096 104.986 156.197 107.531 154.488L110.079 152.869Z" fill="#F9B499"/>
<path d="M126.715 171.713L131.738 178.022L132.125 171.291L135.607 179.722L133.287 166.255L125.328 159.733C124.801 161.728 124.652 163.818 124.891 165.878C125.129 167.937 125.749 169.923 126.715 171.713Z" fill="#070717"/>
<path opacity="0.2" d="M126.715 171.713L131.738 178.022L132.125 171.291L135.607 179.722L133.287 166.255L125.328 159.733C124.801 161.728 124.652 163.818 124.891 165.878C125.129 167.937 125.749 169.923 126.715 171.713Z" fill="black"/>
<path d="M117.426 177.583C117.426 177.583 126.307 207.879 126.715 238.175V257.152H122.071C122.071 257.152 110.854 262.162 107.392 276.893L73.75 276.471C73.75 276.471 69.11 273.946 69.11 257.955C69.1806 254.993 69.438 252.04 69.8806 249.117C69.8662 245.355 69.662 241.597 69.269 237.86C69.1713 237.075 69.3223 236.277 69.6971 235.597L72.2006 231.023C72.2006 231.023 65.2691 201.405 74.9161 191.178L95.7962 168.319L117.426 177.583Z" fill="#070717"/>
<path opacity="0.2" d="M78.761 198.619C78.761 198.619 93.8472 209.982 99.2537 230.18C101.22 237.985 102.004 246.087 101.574 254.166C101.574 254.166 88.041 261.319 82.6263 270.139C82.6263 270.139 99.2537 258.359 104.281 257.516L120.998 257.711L107.396 256.673C107.396 256.673 108.146 214.193 78.761 198.619Z" fill="black"/>
<path opacity="0.2" d="M167.447 160.647C167.069 161.047 166.827 161.576 166.762 162.147L166.591 163.633C166.541 164.069 166.388 164.483 166.147 164.835C165.907 165.187 165.586 165.466 165.217 165.643C165.217 165.643 166.538 157.803 161.14 150.229C161.123 150.229 165.266 153.397 167.447 160.647Z" fill="black"/>
<path opacity="0.2" d="M150.017 185.095L141.789 173.794L151.391 182.49L150.017 185.095Z" fill="black"/>
<path d="M145.124 192.097C145.124 192.097 147.978 203.673 147.203 227.655L146.229 255.089H148.512C148.512 255.089 147.978 244.489 151.069 238.175C151.069 238.175 163.822 213.771 154.159 197.798C154.159 197.776 149.23 193.991 145.124 192.097Z" fill="#070717"/>
<path opacity="0.2" d="M145.124 192.097C145.124 192.097 147.978 203.673 147.203 227.655L146.229 255.089H148.512C148.512 255.089 147.978 244.489 151.069 238.175C151.069 238.175 163.822 213.771 154.159 197.798C154.159 197.776 149.23 193.991 145.124 192.097Z" fill="black"/>
<path d="M295.305 120.35H272.492V130.87H295.305V120.35Z" fill="#A8A8A8"/>
<path d="M275.02 125.612H278.893" stroke="#C1C1C1" stroke-width="4" stroke-miterlimit="10"/>
<path d="M289.87 125.612H293.743" stroke="#C1C1C1" stroke-width="4" stroke-miterlimit="10"/>
<path d="M272.492 139.287H278.539L295.305 130.87H272.492V139.287Z" fill="#C1C1C1"/>
<path d="M305.747 154.018H272.492V164.538H305.747V154.018Z" fill="#A8A8A8"/>
<path d="M275.02 159.276H278.893" stroke="#C1C1C1" stroke-width="4" stroke-miterlimit="10"/>
<path d="M285.458 159.276H295.305" stroke="#C1C1C1" stroke-width="4" stroke-miterlimit="10" stroke-dasharray="16.1 16.1"/>
<path d="M298.587 159.276H302.46" stroke="#C1C1C1" stroke-width="4" stroke-miterlimit="10"/>
<path d="M272.492 172.951H288.985L305.555 164.534H272.492V172.951Z" fill="#C1C1C1"/>
<path d="M240.395 100.574L222.222 113.197L198.635 111.516L240.395 79.9552V100.574Z" fill="#8D8D8D"/>
<path d="M240.395 271.785L197.428 257.374H240.395V271.785Z" fill="#8A8A8A"/>
<path d="M197.428 257.374V266.554L240.395 285.305V271.785L197.428 257.374Z" fill="#AAAAAA"/>
<path d="M198.635 111.516L198.998 257.374H240.395V234.293L209.02 231.289L208.686 154.4L210.708 137.814L210.622 121.193L222.222 113.197L198.635 111.516Z" fill="#C1C1C1"/>
<path d="M210.643 125.381L240.395 106.466V109.83L210.643 128.758V125.381Z" fill="#CBCBCB"/>
<path d="M208.718 161.592L208.686 154.4L240.395 138.027V222.606L208.975 220.547L208.718 161.592Z" fill="#E6E6E6"/>
<path d="M230.927 168.745V151.702L208.718 161.592L208.779 175.959L230.927 168.745Z" fill="white"/>
<path d="M208.686 179.265L240.395 169.534" stroke="#C1C1C1" stroke-width="4" stroke-miterlimit="10" stroke-dasharray="19 19"/>
<path d="M216.42 182.632L216.229 211.619L240.395 210.825L240.464 175.817L216.42 182.632Z" fill="#C1C1C1"/>
<path d="M270.571 259.411C270.487 259.411 270.403 259.388 270.329 259.345C270.254 259.301 270.19 259.239 270.143 259.162C270.069 259.039 270.043 258.889 270.071 258.745C270.098 258.601 270.177 258.475 270.29 258.395C277.103 253.487 282.208 242.191 285.466 224.815C288.088 210.834 289.515 192.935 289.702 171.611C290.024 135.28 286.591 101.173 286.555 100.831C286.541 100.685 286.581 100.54 286.666 100.426C286.75 100.312 286.873 100.239 287.007 100.223C287.073 100.215 287.141 100.221 287.205 100.241C287.269 100.261 287.329 100.294 287.381 100.34C287.433 100.385 287.476 100.442 287.508 100.505C287.54 100.569 287.559 100.639 287.566 100.712C287.603 101.053 291.04 135.214 290.718 171.615C290.53 193.006 289.087 210.98 286.465 225.033C283.15 242.71 277.903 254.241 270.849 259.317C270.767 259.378 270.67 259.41 270.571 259.411Z" fill="#070717"/>
<path d="M186.395 157.936L196.763 151.702V155.278H198.745L198.998 257.374H197.428V263.448L186.395 258.732V157.936Z" fill="#999999"/>
<path d="M169.563 190.628H186.244V193.996H169.563C169.171 193.996 168.794 193.826 168.517 193.524C168.239 193.222 168.083 192.812 168.083 192.385V192.239C168.083 191.811 168.239 191.402 168.517 191.1C168.794 190.798 169.171 190.628 169.563 190.628Z" fill="#CDCDCD"/>
<path d="M169.563 203.659H186.244V207.027H169.563C169.171 207.027 168.794 206.857 168.517 206.555C168.239 206.253 168.083 205.844 168.083 205.416V205.27C168.083 204.843 168.239 204.433 168.517 204.131C168.794 203.829 169.171 203.659 169.563 203.659Z" fill="#CDCDCD"/>
<path d="M169.563 215.875H186.244V219.242H169.563C169.171 219.242 168.794 219.073 168.517 218.77C168.239 218.468 168.083 218.059 168.083 217.632V217.485C168.083 217.058 168.239 216.648 168.517 216.346C168.794 216.044 169.171 215.875 169.563 215.875Z" fill="#CDCDCD"/>
<path d="M169.563 228.919H186.244V232.287H169.563C169.171 232.287 168.794 232.117 168.517 231.815C168.239 231.513 168.083 231.104 168.083 230.677V230.53C168.083 230.103 168.239 229.693 168.517 229.391C168.794 229.089 169.171 228.919 169.563 228.919Z" fill="#CDCDCD"/>
<path d="M169.563 244.924H186.244V248.291H169.563C169.171 248.291 168.794 248.122 168.517 247.82C168.239 247.518 168.083 247.108 168.083 246.681V246.534C168.083 246.107 168.239 245.698 168.517 245.395C168.794 245.093 169.171 244.924 169.563 244.924Z" fill="#CDCDCD"/>
<path d="M155.517 131.292C160.962 131.292 165.376 126.488 165.376 120.563C165.376 114.638 160.962 109.834 155.517 109.834C150.072 109.834 145.658 114.638 145.658 120.563C145.658 126.488 150.072 131.292 155.517 131.292Z" fill="#6C63FF"/>
<path d="M155.517 122.209L152.039 117.794C151.781 117.466 151.415 117.261 151.02 117.225C150.624 117.188 150.232 117.323 149.927 117.599C149.774 117.739 149.647 117.911 149.555 118.104C149.463 118.298 149.408 118.509 149.391 118.726C149.375 118.943 149.399 119.162 149.46 119.369C149.522 119.576 149.621 119.768 149.752 119.933L154.701 126.167C154.854 126.361 155.048 126.51 155.267 126.602C155.486 126.694 155.722 126.726 155.955 126.694C156.187 126.662 156.409 126.568 156.6 126.421C156.791 126.273 156.946 126.076 157.05 125.847L166.24 105.774C166.328 105.594 166.38 105.397 166.393 105.194C166.407 104.991 166.381 104.787 166.319 104.595C166.256 104.404 166.158 104.228 166.03 104.08C165.902 103.931 165.748 103.813 165.576 103.733C165.26 103.586 164.905 103.575 164.582 103.703C164.259 103.831 163.994 104.087 163.839 104.421L155.517 122.209Z" fill="white"/>
<path d="M125.716 158.34C124.854 161.067 124.621 163.984 125.039 166.832C125.039 166.832 115.616 158.22 116.811 152.634L122.98 153.29L125.716 158.34Z" fill="#F7A48B"/>
<path d="M131.489 157.822C138.842 154.645 141.207 142.219 136.773 130.069C132.339 117.919 122.784 110.645 115.432 113.822C108.08 116.999 105.714 129.425 110.148 141.575C114.582 153.726 124.137 161 131.489 157.822Z" fill="#F9B499"/>
<path d="M114.234 152.634C113.088 153.486 111.584 153.521 110.079 152.887C108.381 152.105 106.933 150.792 105.92 149.115C103.621 145.468 103.621 141.128 105.92 139.425C107.653 138.133 110.205 138.719 112.334 140.658C113.051 141.318 113.682 142.08 114.209 142.925C116.521 146.573 116.521 150.908 114.234 152.634Z" fill="#F9B499"/>
<path d="M133.622 114.919C128.203 119.356 119.225 118.207 116.167 117.634C115.799 117.568 115.423 117.602 115.071 117.733C114.719 117.864 114.402 118.088 114.148 118.384C113.405 119.239 112.794 120.221 112.342 121.291C109.965 128.536 117.043 132.476 117.043 132.476V143.085C115.172 141.452 112.513 140.716 112.35 140.671C110.222 138.732 107.669 138.147 105.937 139.438C103.645 141.151 103.645 145.481 105.937 149.128C106.948 150.796 108.389 152.102 110.079 152.882L108.285 154.031C102.927 157.608 101.961 154.031 101.961 154.031C101.186 152.345 98.4791 149.821 98.4791 149.821C89.9737 144.336 86.879 138.879 86.879 138.879C86.1087 138.662 85.3854 138.281 84.7508 137.759C84.1161 137.236 83.5826 136.583 83.1809 135.835C81.4113 128.159 87.2582 124.995 87.2582 124.995C89.9656 122.888 91.1235 114.897 91.1235 114.897C93.0603 107.318 96.5383 112.368 96.5383 112.368C103.877 101.43 109.688 105.215 109.688 105.215C110.849 106.062 112.23 106.478 113.625 106.402C115.021 106.326 116.357 105.762 117.435 104.794C122.849 98.9057 130.197 100.587 130.197 100.587C133.65 101.124 135.35 103.028 136.17 105.024C137.589 108.53 136.431 112.598 133.622 114.919Z" fill="#070717"/>
<path d="M96.5423 159.067V159.094C96.5423 159.094 95.5719 160.722 95.368 163.788C95.2798 165.367 95.4894 166.948 95.9837 168.436C96.478 169.923 97.2468 171.284 98.2426 172.436L114.283 191.351L117.577 177.596L96.5423 159.067Z" fill="#070717"/>
<path opacity="0.2" d="M96.5423 159.067V159.094C96.5423 159.094 95.5719 160.722 95.368 163.788C95.2798 165.367 95.4894 166.948 95.9837 168.436C96.478 169.923 97.2468 171.284 98.2426 172.436L114.283 191.351L117.577 177.596L96.5423 159.067Z" fill="black"/>
<path d="M196.763 146.022L240.395 120.35V130.87L196.763 155.278V146.022Z" fill="#AAAAAA"/>
<path d="M196.763 155.278L208.686 154.4L240.395 137.783V130.87L196.763 155.278Z" fill="#8D8D8D"/>
<path d="M197.428 220.502V230.18L240.395 234.293V223.595L197.428 220.502Z" fill="#AAAAAA"/>
<path d="M197.428 220.502H208.302L240.395 222.606V223.595L197.428 220.502Z" fill="#8D8D8D"/>
<path d="M206.092 224.682C206.012 224.68 205.932 224.659 205.86 224.62C205.801 224.587 205.748 224.541 205.705 224.485C205.662 224.43 205.629 224.366 205.609 224.296C205.589 224.227 205.582 224.154 205.588 224.082C205.594 224.009 205.613 223.939 205.644 223.874L209.538 215.639C211.96 210.541 213.219 204.882 213.207 199.142C213.15 189.381 210.125 179.327 207.593 172.6C206.003 168.327 204.149 164.177 202.044 160.177C202.044 160.177 202.023 160.141 202.015 160.119C198.916 152.598 196.714 145.694 195.43 139.593C194.407 134.69 193.991 130.275 194.207 126.513C194.553 119.968 196.625 117.532 196.714 117.43C196.809 117.332 196.935 117.277 197.066 117.277C197.196 117.277 197.322 117.332 197.417 117.43C197.512 117.528 197.568 117.662 197.575 117.804C197.582 117.946 197.538 118.085 197.452 118.193C197.412 118.242 195.504 120.572 195.214 126.757C194.941 132.525 196.062 142.93 202.961 159.64C205.079 163.671 206.945 167.852 208.547 172.157C211.116 178.981 214.186 189.195 214.255 199.129C214.262 205.05 212.957 210.885 210.451 216.141L206.557 224.367C206.516 224.463 206.45 224.543 206.367 224.599C206.285 224.655 206.189 224.684 206.092 224.682Z" fill="#070717"/>
<path d="M295.305 86.6862H272.492V97.2063H295.305V86.6862Z" fill="#A8A8A8"/>
<path d="M275.02 91.9485H278.893" stroke="#C1C1C1" stroke-width="4" stroke-miterlimit="10"/>
<path d="M289.87 91.9485H293.743" stroke="#C1C1C1" stroke-width="4" stroke-miterlimit="10"/>
<path d="M272.492 106.466H278.539L295.305 97.2063H272.492V106.466Z" fill="#C1C1C1"/>
<path d="M229.435 132.716C229.384 132.716 229.333 132.707 229.284 132.689C226.519 131.816 223.974 130.267 221.843 128.159C220.492 126.771 219.49 125.029 218.932 123.1C218.375 121.17 218.281 119.118 218.659 117.137C218.951 115.614 219.538 114.176 220.382 112.92C221.226 111.663 222.307 110.617 223.552 109.852C224.72 109.096 225.998 108.562 227.331 108.272C227.4 108.254 227.471 108.252 227.54 108.265C227.609 108.278 227.675 108.306 227.734 108.349C227.792 108.391 227.842 108.446 227.88 108.51C227.919 108.574 227.944 108.647 227.955 108.722C227.967 108.798 227.963 108.875 227.946 108.949C227.928 109.023 227.897 109.092 227.854 109.153C227.811 109.213 227.756 109.263 227.694 109.299C227.633 109.335 227.564 109.358 227.494 109.364C226.275 109.638 225.107 110.131 224.037 110.824C222.915 111.507 221.942 112.445 221.183 113.574C220.425 114.704 219.899 115.998 219.641 117.368C219.3 119.161 219.387 121.019 219.893 122.765C220.399 124.511 221.308 126.087 222.532 127.343C224.549 129.337 226.959 130.802 229.578 131.624C229.642 131.646 229.701 131.68 229.753 131.727C229.804 131.773 229.847 131.83 229.878 131.895C229.909 131.959 229.928 132.029 229.934 132.102C229.94 132.174 229.932 132.247 229.912 132.317C229.881 132.429 229.819 132.529 229.733 132.6C229.647 132.672 229.543 132.712 229.435 132.716Z" fill="#070717"/>
<path d="M217.431 137.739C217.367 137.738 217.304 137.725 217.244 137.699C215.858 137.119 214.604 136.221 213.565 135.068C212.526 133.914 211.727 132.531 211.222 131.012C210.743 129.622 210.498 128.149 210.5 126.664C210.341 122.182 212.07 118.322 215.503 115.496C217.089 114.195 218.872 113.206 220.771 112.572C220.901 112.534 221.039 112.553 221.156 112.626C221.272 112.699 221.357 112.819 221.393 112.96C221.428 113.101 221.41 113.252 221.343 113.379C221.276 113.506 221.166 113.598 221.036 113.637C219.255 114.245 217.582 115.18 216.09 116.401C212.901 119.037 211.364 122.484 211.515 126.642V126.686C211.52 128.05 211.748 129.402 212.188 130.679C212.645 132.046 213.369 133.289 214.31 134.321C215.251 135.354 216.387 136.152 217.639 136.66C217.749 136.708 217.841 136.797 217.897 136.91C217.954 137.023 217.972 137.155 217.95 137.281C217.927 137.408 217.864 137.522 217.773 137.604C217.681 137.686 217.566 137.73 217.448 137.73L217.431 137.739Z" fill="#070717"/>
<path d="M240.211 190.406C240.149 190.407 240.086 190.395 240.028 190.37C237.126 189.094 234.628 186.928 232.836 184.136C231.125 181.503 229.804 178.594 228.921 175.515C227.858 171.969 227.187 168.297 226.923 164.578C226.459 143.524 230.495 120.447 232.253 111.498C233.019 107.666 233.406 103.755 233.406 99.833C233.382 92.6095 231.987 89.0998 230.821 87.4093C229.598 85.6656 228.424 85.5458 228.375 85.5413C228.329 85.5415 228.283 85.5325 228.24 85.5147C227.418 85.1861 226.543 85.046 225.668 85.1032C224.794 85.1605 223.94 85.4139 223.16 85.8475C218.014 88.6295 215.148 98.0671 215.12 98.1647C215.077 98.3031 214.986 98.4178 214.866 98.4842C214.746 98.5505 214.608 98.5632 214.479 98.5196C214.416 98.4975 214.357 98.4619 214.306 98.4148C214.255 98.3677 214.213 98.3101 214.183 98.2453C214.152 98.1806 214.134 98.1099 214.129 98.0374C214.124 97.9649 214.132 97.8921 214.153 97.823C214.271 97.4148 217.179 87.8486 222.716 84.858C223.608 84.3609 224.584 84.0679 225.584 83.9969C226.583 83.9259 227.586 84.0786 228.53 84.4454C229.276 84.543 234.389 85.7321 234.434 99.8108C234.433 103.806 234.04 107.789 233.26 111.693C231.51 120.598 227.49 143.569 227.959 164.494C228.228 168.114 228.884 171.688 229.916 175.143C231.453 180.227 234.524 186.812 240.415 189.306C240.541 189.358 240.643 189.463 240.698 189.597C240.753 189.731 240.757 189.883 240.709 190.02C240.675 190.134 240.608 190.233 240.519 190.302C240.429 190.372 240.321 190.408 240.211 190.406Z" fill="#070717"/>
<path d="M240.395 265.134H240.362C234.956 264.762 230.83 262.472 228.098 258.275C224.979 253.509 223.682 246.37 224.245 237.061C224.679 230.933 225.661 224.866 227.176 218.945C227.507 217.645 227.91 216.327 228.399 214.916C232.837 202.14 236.575 189.088 239.592 175.83C239.604 175.756 239.63 175.685 239.668 175.622C239.706 175.559 239.755 175.505 239.813 175.463C239.871 175.422 239.936 175.393 240.004 175.38C240.073 175.367 240.143 175.369 240.21 175.386C240.278 175.403 240.341 175.436 240.397 175.48C240.453 175.525 240.5 175.582 240.534 175.647C240.569 175.713 240.592 175.785 240.6 175.86C240.608 175.935 240.602 176.011 240.583 176.083C237.554 189.388 233.803 202.485 229.349 215.307C228.868 216.687 228.477 217.969 228.155 219.242C226.657 225.089 225.686 231.081 225.256 237.132C224.709 246.184 225.941 253.079 228.925 257.636C231.47 261.527 235.339 263.679 240.428 264.03C240.555 264.046 240.671 264.113 240.755 264.218C240.838 264.324 240.882 264.459 240.878 264.598C240.874 264.737 240.822 264.87 240.733 264.969C240.643 265.068 240.523 265.127 240.395 265.134Z" fill="#070717"/>
<path d="M240.065 252.689C238.696 252.671 237.332 252.522 235.987 252.245C224.432 249.951 216.477 238.091 217.872 225.241C218.687 217.698 221.313 209.649 225.664 201.281C226.031 200.46 239.147 171.007 239.898 158.459C239.901 158.387 239.918 158.316 239.947 158.25C239.976 158.184 240.017 158.126 240.067 158.078C240.117 158.029 240.176 157.992 240.239 157.969C240.302 157.945 240.369 157.935 240.436 157.94C240.571 157.951 240.696 158.018 240.786 158.129C240.875 158.239 240.921 158.384 240.913 158.53C240.587 163.948 238.059 172.88 233.439 185.073C229.998 194.129 226.605 201.707 226.573 201.783C226.574 201.793 226.574 201.803 226.573 201.814C222.259 210.066 219.678 217.987 218.863 225.401C217.529 237.669 225.121 248.997 236.151 251.184C237.538 251.477 238.949 251.616 240.362 251.601C240.432 251.592 240.503 251.599 240.57 251.621C240.638 251.642 240.7 251.679 240.754 251.729C240.807 251.778 240.851 251.839 240.882 251.908C240.913 251.976 240.931 252.051 240.934 252.127C240.937 252.204 240.925 252.28 240.9 252.351C240.875 252.423 240.836 252.488 240.787 252.542C240.737 252.596 240.678 252.639 240.613 252.667C240.548 252.696 240.478 252.709 240.407 252.706L240.065 252.689Z" fill="#070717"/>
<path d="M240.395 142.553C240.275 142.555 240.158 142.511 240.065 142.429C236.424 138.906 234.581 131.891 234.581 121.575C234.603 116.766 234.96 111.966 235.649 107.216C237.398 95.8087 236.738 89.6945 235.877 86.5753C234.964 83.2519 233.647 82.5819 233.631 82.5819C233.593 82.5641 233.558 82.5418 233.525 82.5154C233.251 82.2671 232.924 82.0967 232.575 82.0192C232.226 81.9418 231.864 81.9598 231.523 82.0717C228.693 82.9813 225.863 89.6634 224.999 92.1615C224.978 92.2334 224.944 92.2999 224.899 92.3571C224.854 92.4142 224.799 92.4608 224.737 92.4939C224.675 92.5271 224.607 92.5461 224.538 92.5499C224.469 92.5537 224.4 92.5421 224.335 92.5158C224.27 92.4896 224.211 92.4492 224.161 92.3973C224.111 92.3453 224.071 92.2827 224.044 92.2135C224.017 92.1442 224.003 92.0696 224.003 91.9943C224.003 91.919 224.017 91.8446 224.045 91.7755C224.175 91.3894 227.307 82.258 231.221 81.0112C231.705 80.8529 232.218 80.8238 232.714 80.9265C233.211 81.0293 233.678 81.2607 234.075 81.6014C234.43 81.7877 235.796 82.7017 236.762 86.0162C238.136 90.7061 238.091 97.9074 236.636 107.42C236.591 107.687 232.526 133.679 240.713 141.608C240.813 141.706 240.874 141.843 240.881 141.989C240.889 142.135 240.843 142.279 240.754 142.389C240.707 142.441 240.652 142.483 240.59 142.511C240.528 142.539 240.462 142.553 240.395 142.553Z" fill="#070717"/>
<path d="M272.492 79.9552H240.395V285.305H272.492V79.9552Z" fill="#939393"/>
<path d="M240.395 87.9507H259.412C259.804 87.9507 260.181 88.1204 260.458 88.4224C260.736 88.7245 260.892 89.1342 260.892 89.5613V89.7077C260.892 90.1349 260.736 90.5446 260.458 90.8466C260.181 91.1487 259.804 91.3184 259.412 91.3184H240.395V87.9507Z" fill="#747474"/>
<path d="M240.395 97.2064H259.412C259.804 97.2064 260.181 97.376 260.458 97.6781C260.736 97.9801 260.892 98.3898 260.892 98.817V98.9457C260.892 99.3728 260.736 99.7825 260.458 100.085C260.181 100.387 259.804 100.556 259.412 100.556H240.395V97.1886V97.2064Z" fill="#747474"/>
<path d="M240.395 106.466H259.412C259.804 106.466 260.181 106.636 260.458 106.938C260.736 107.24 260.892 107.65 260.892 108.077V108.223C260.892 108.651 260.736 109.06 260.458 109.362C260.181 109.664 259.804 109.834 259.412 109.834H240.395V106.466Z" fill="#747474"/>
<path d="M240.395 115.722H259.412C259.804 115.722 260.181 115.892 260.458 116.194C260.736 116.496 260.892 116.906 260.892 117.333V117.479C260.892 117.906 260.736 118.316 260.458 118.618C260.181 118.92 259.804 119.09 259.412 119.09H240.395V115.722Z" fill="#747474"/>
<path d="M240.395 124.561H259.412C259.804 124.561 260.181 124.73 260.458 125.032C260.736 125.334 260.892 125.744 260.892 126.171V126.318C260.892 126.745 260.736 127.154 260.458 127.457C260.181 127.759 259.804 127.928 259.412 127.928H240.395V124.561Z" fill="#747474"/>
<path d="M240.395 133.816H259.412C259.804 133.816 260.181 133.986 260.458 134.288C260.736 134.59 260.892 135 260.892 135.427V135.573C260.892 136.001 260.736 136.41 260.458 136.712C260.181 137.014 259.804 137.184 259.412 137.184H240.395V133.816Z" fill="#747474"/>
<path d="M240.395 143.076H259.412C259.804 143.076 260.181 143.246 260.458 143.548C260.736 143.85 260.892 144.26 260.892 144.687V144.833C260.892 145.261 260.736 145.67 260.458 145.972C260.181 146.274 259.804 146.444 259.412 146.444H240.395V143.076Z" fill="#747474"/>
<path d="M240.395 152.332H259.412C259.804 152.332 260.181 152.502 260.458 152.804C260.736 153.106 260.892 153.515 260.892 153.943V154.089C260.892 154.516 260.736 154.926 260.458 155.228C260.181 155.53 259.804 155.7 259.412 155.7H240.395V152.332Z" fill="#747474"/>
<path d="M240.395 161.592H259.412C259.804 161.592 260.181 161.762 260.458 162.064C260.736 162.366 260.892 162.776 260.892 163.203V163.349C260.892 163.776 260.736 164.186 260.458 164.488C260.181 164.79 259.804 164.96 259.412 164.96H240.395V161.592Z" fill="#747474"/>
<path d="M240.395 170.848H259.412C259.804 170.848 260.181 171.017 260.458 171.319C260.736 171.621 260.892 172.031 260.892 172.458V172.6C260.892 173.027 260.736 173.437 260.458 173.739C260.181 174.041 259.804 174.211 259.412 174.211H240.395V170.843V170.848Z" fill="#747474"/>
<path d="M240.395 180.108H259.412C259.804 180.108 260.181 180.277 260.458 180.579C260.736 180.881 260.892 181.291 260.892 181.718V181.865C260.892 182.292 260.736 182.702 260.458 183.004C260.181 183.306 259.804 183.475 259.412 183.475H240.395V180.108Z" fill="#747474"/>
<path d="M240.395 188.942H259.412C259.804 188.942 260.181 189.111 260.458 189.414C260.736 189.716 260.892 190.125 260.892 190.552V190.699C260.892 191.126 260.736 191.536 260.458 191.838C260.181 192.14 259.804 192.309 259.412 192.309H240.395V188.942Z" fill="#747474"/>
<path d="M240.395 198.202H259.412C259.804 198.202 260.181 198.372 260.458 198.674C260.736 198.976 260.892 199.385 260.892 199.813V199.959C260.892 200.386 260.736 200.796 260.458 201.098C260.181 201.4 259.804 201.57 259.412 201.57H240.395V198.202Z" fill="#747474"/>
<path d="M240.395 207.458H259.412C259.804 207.458 260.181 207.627 260.458 207.929C260.736 208.231 260.892 208.641 260.892 209.068V209.215C260.892 209.642 260.736 210.051 260.458 210.353C260.181 210.656 259.804 210.825 259.412 210.825H240.395V207.458Z" fill="#747474"/>
<path d="M240.395 216.718H259.412C259.804 216.718 260.181 216.887 260.458 217.189C260.736 217.491 260.892 217.901 260.892 218.328V218.475C260.892 218.902 260.736 219.312 260.458 219.614C260.181 219.916 259.804 220.085 259.412 220.085H240.395V216.718Z" fill="#747474"/>
<path d="M240.395 225.973H259.412C259.804 225.973 260.181 226.143 260.458 226.445C260.736 226.747 260.892 227.157 260.892 227.584V227.73C260.892 228.157 260.736 228.567 260.458 228.869C260.181 229.171 259.804 229.341 259.412 229.341H240.395V225.973Z" fill="#747474"/>
<path d="M240.395 235.229H259.412C259.804 235.229 260.181 235.399 260.458 235.701C260.736 236.003 260.892 236.412 260.892 236.84V236.986C260.892 237.413 260.736 237.823 260.458 238.125C260.181 238.427 259.804 238.597 259.412 238.597H240.395V235.229Z" fill="#747474"/>
<path d="M240.395 244.48H259.412C259.804 244.48 260.181 244.65 260.458 244.952C260.736 245.254 260.892 245.664 260.892 246.091V246.255C260.892 246.682 260.736 247.092 260.458 247.394C260.181 247.696 259.804 247.866 259.412 247.866H240.395V244.48Z" fill="#747474"/>
<path d="M240.395 252.91H259.412C259.804 252.91 260.181 253.08 260.458 253.382C260.736 253.684 260.892 254.094 260.892 254.521V254.667C260.892 255.095 260.736 255.504 260.458 255.806C260.181 256.108 259.804 256.278 259.412 256.278H240.395V252.91Z" fill="#747474"/>
<path d="M224.004 103.432H218.353C218.327 103.426 218.303 103.411 218.286 103.389C218.269 103.366 218.26 103.338 218.26 103.31C218.26 103.281 218.269 103.253 218.286 103.23C218.303 103.208 218.327 103.193 218.353 103.188H224.004C224.03 103.193 224.054 103.208 224.071 103.23C224.088 103.253 224.097 103.281 224.097 103.31C224.097 103.338 224.088 103.366 224.071 103.389C224.054 103.411 224.03 103.426 224.004 103.432Z" fill="white"/>
<path d="M209.982 101.839H218.357V104.785H209.982C209.811 104.788 209.641 104.754 209.482 104.685C209.323 104.615 209.179 104.513 209.056 104.382C208.934 104.252 208.837 104.096 208.771 103.925C208.704 103.753 208.67 103.569 208.669 103.383V103.254C208.668 103.067 208.701 102.881 208.767 102.708C208.833 102.535 208.93 102.378 209.052 102.246C209.174 102.114 209.32 102.01 209.479 101.94C209.639 101.87 209.81 101.836 209.982 101.839Z" fill="#6C63FF"/>
<path d="M200.951 95.9463L206.965 94.8547C207.584 94.7426 208.22 94.8337 208.792 95.1165L217.709 99.5225C217.829 99.5789 217.936 99.6653 218.02 99.7746C218.104 99.8839 218.164 100.013 218.194 100.152C218.224 100.291 218.224 100.435 218.193 100.574C218.163 100.713 218.103 100.842 218.019 100.951C217.798 101.213 217.427 101.333 216.795 100.996L207.12 95.9463H200.951Z" fill="#F7A48B"/>
<path d="M213.713 108.148C213.713 108.148 209.073 109.413 208.302 111.937C208.302 111.937 207.895 114.462 203.275 115.722L197.086 117.825L183.924 138.613L177.372 148.955C177.372 148.955 175.003 153.086 171.353 154.812C171.353 154.812 170.318 145.783 163.403 140.849C163.403 140.849 164.626 135.911 171.186 130.023L190.521 111.085L194.399 99.3096C194.399 99.3096 194.399 95.9463 198.655 95.9463H207.12L216.824 100.996C216.824 100.996 217.211 104.78 210.639 102.256C210.639 102.256 206.382 100.996 204.837 102.256C204.837 102.256 199.809 103.942 200.971 104.78C200.971 104.78 202.517 107.727 205.224 106.466C205.224 106.466 213.342 103.099 216.049 104.363C216.033 104.363 217.97 106.045 213.713 108.148Z" fill="#F9B499"/>
<path d="M183.916 138.622L177.363 148.964C177.363 148.964 174.994 153.095 171.345 154.821C171.345 154.821 170.31 145.792 163.394 140.858C165.365 141.586 167.146 142.817 168.59 144.447C170.034 146.077 171.099 148.06 171.696 150.229C171.696 150.229 172.723 151.91 175.818 148.126L183.916 138.622Z" fill="#F7A48B"/>
<path d="M151.452 271.786H149.425L188.58 227.655L219.902 221.345L219.185 222.606L188.967 228.919L151.452 271.786Z" fill="#6C63FF"/>
<path opacity="0.2" d="M151.452 271.786H149.425L188.58 227.655L219.902 221.345L219.185 222.606L188.967 228.919L151.452 271.786Z" fill="black"/>
<path d="M181.62 267.633L219.185 222.606L188.968 228.919L151.452 271.786L181.62 267.633Z" fill="#6C63FF"/>
<path d="M107.376 276.893L153.776 268.054L169.935 268.835C170.744 268.875 171.549 268.671 172.259 268.245L182.387 262.162C182.387 262.162 184.323 260.901 183.936 257.955C183.936 257.955 187.027 256.691 185.094 252.906L186.289 252.161C186.697 251.906 187.001 251.492 187.137 251.002C187.274 250.511 187.233 249.983 187.023 249.525C186.815 249.071 186.456 248.72 186.019 248.544C185.582 248.368 185.1 248.379 184.67 248.575L176.976 252.063L166.925 252.91C166.925 252.91 164.993 252.91 166.151 250.803L168.858 247.861H170.819L174.273 244.072C174.273 244.072 165.763 240.704 159.965 246.597L152.977 253.798C152.495 254.304 151.87 254.617 151.203 254.685L128.545 256.961C127.322 257.086 126.099 257.148 124.876 257.148H122.083C122.083 257.148 111.241 261.74 107.376 276.893Z" fill="#F9B499"/>
<path d="M185.098 252.906L177.559 256.207" stroke="#F7A48B" stroke-miterlimit="10"/>
<path d="M183.826 257.955L178.896 260.001" stroke="#F7A48B" stroke-miterlimit="10"/>
</svg>
