<svg width="30" height="31" viewBox="0 0 30 31" fill="none" xmlns="http://www.w3.org/2000/svg">
<circle cx="15" cy="15.5" r="15" fill="#FAFCFE"/>
<path d="M15.3125 19.5625L12.8906 21.9844C12.7164 22.1592 12.5094 22.2979 12.2815 22.3925C12.0536 22.4871 11.8092 22.5359 11.5625 22.5359C11.3157 22.5359 11.0713 22.4871 10.8434 22.3925C10.6155 22.2979 10.4085 22.1592 10.2343 21.9844L8.51559 20.2656C8.34079 20.0914 8.2021 19.8844 8.10746 19.6565C8.01283 19.4286 7.96411 19.1843 7.96411 18.9375C7.96411 18.6907 8.01283 18.4464 8.10746 18.2185C8.2021 17.9906 8.34079 17.7836 8.51559 17.6094L10.9375 15.1875" stroke="#4A4A68" stroke-width="1.5" stroke-linecap="round" stroke-linejoin="round"/>
<path d="M9.375 21.125L6.875 23.625" stroke="#4A4A68" stroke-width="1.5" stroke-linecap="round" stroke-linejoin="round"/>
<path d="M23.125 7.375L20.625 9.875" stroke="#4A4A68" stroke-width="1.5" stroke-linecap="round" stroke-linejoin="round"/>
<path d="M16.25 16.75L14.375 18.625" stroke="#4A4A68" stroke-width="1.5" stroke-linecap="round" stroke-linejoin="round"/>
<path d="M13.75 14.25L11.875 16.125" stroke="#4A4A68" stroke-width="1.5" stroke-linecap="round" stroke-linejoin="round"/>
<path d="M19.0625 15.8127L21.4844 13.3908C21.6592 13.2166 21.7979 13.0097 21.8925 12.7817C21.9871 12.5538 22.0359 12.3095 22.0359 12.0627C22.0359 11.8159 21.9871 11.5716 21.8925 11.3437C21.7979 11.1158 21.6592 10.9088 21.4844 10.7346L19.7656 9.01583C19.5914 8.84103 19.3844 8.70234 19.1565 8.6077C18.9286 8.51307 18.6843 8.46436 18.4375 8.46436C18.1907 8.46436 17.9464 8.51307 17.7185 8.6077C17.4906 8.70234 17.2836 8.84103 17.1094 9.01583L14.6875 11.4377" stroke="#4A4A68" stroke-width="1.5" stroke-linecap="round" stroke-linejoin="round"/>
<path d="M14.0625 10.8125L19.6875 16.4375" stroke="#4A4A68" stroke-width="1.5" stroke-linecap="round" stroke-linejoin="round"/>
<path d="M10.3125 14.5625L15.9375 20.1875" stroke="#4A4A68" stroke-width="1.5" stroke-linecap="round" stroke-linejoin="round"/>
</svg>
