<svg width="26" height="26" viewBox="0 0 26 26" fill="none" xmlns="http://www.w3.org/2000/svg">
<path opacity="0.4" d="M3.4209 16.6221C3.4209 16.6221 3.56882 18.4325 3.60319 19.0033C3.64902 19.7689 3.94486 20.6242 4.43861 21.2179C5.13548 22.0596 5.95632 22.3564 7.05215 22.3585C8.34069 22.3606 17.7105 22.3606 18.999 22.3585C20.0949 22.3564 20.9157 22.0596 21.6126 21.2179C22.1063 20.6242 22.4022 19.7689 22.449 19.0033C22.4824 18.4325 22.6303 16.6221 22.6303 16.6221" stroke="#FAFCFE" stroke-width="2" stroke-linecap="round" stroke-linejoin="round"/>
<path d="M9.34998 6.05169V5.66523C9.34998 4.3944 10.3791 3.36523 11.65 3.36523H14.3396C15.6094 3.36523 16.6396 4.3944 16.6396 5.66523L16.6406 6.05169" stroke="#FAFCFE" stroke-width="2" stroke-linecap="round" stroke-linejoin="round"/>
<path d="M12.9948 17.8733V16.5254" stroke="#FAFCFE" stroke-width="2" stroke-linecap="round" stroke-linejoin="round"/>
<path fill-rule="evenodd" clip-rule="evenodd" d="M3.3645 9.23864V12.8501C5.36242 14.1678 7.75617 15.0907 10.3833 15.4563C10.6978 14.3095 11.7322 13.4688 12.9895 13.4688C14.227 13.4688 15.2822 14.3095 15.576 15.4668C18.2135 15.1011 20.6166 14.1782 22.6249 12.8501V9.23864C22.6249 7.47406 21.2051 6.05322 19.4405 6.05322H6.55929C4.79471 6.05322 3.3645 7.47406 3.3645 9.23864Z" stroke="#FAFCFE" stroke-width="2" stroke-linecap="round" stroke-linejoin="round"/>
</svg>
