<svg width="22" height="24" viewBox="0 0 22 24" fill="none" xmlns="http://www.w3.org/2000/svg">
<path d="M8.03885 21.1815V17.987C8.03883 17.1744 8.70125 16.5142 9.52197 16.5088H12.5283C13.3529 16.5088 14.0214 17.1706 14.0214 17.987V17.987V21.1914C14.0213 21.8813 14.5774 22.4451 15.2741 22.4613H17.2783C19.2763 22.4613 20.8959 20.8578 20.8959 18.8798V18.8798V9.79234C20.8852 9.01421 20.5162 8.2835 19.8938 7.80817L13.0394 2.34178C11.8386 1.38998 10.1315 1.38998 8.93073 2.34178L2.10636 7.81809C1.4816 8.29149 1.11194 9.02342 1.10425 9.80226V18.8798C1.10425 20.8578 2.72391 22.4613 4.72186 22.4613H6.72608C7.44003 22.4613 8.01881 21.8883 8.01881 21.1815V21.1815" stroke="white" stroke-width="2" stroke-linecap="round" stroke-linejoin="round"/>
</svg>
