<svg width="16" height="16" viewBox="0 0 16 16" fill="none" xmlns="http://www.w3.org/2000/svg">
<path d="M3.87634 12.3066C3.33728 11.7676 3.6947 10.6367 3.41931 9.97461C3.14392 9.3125 2.08923 8.73242 2.08923 8C2.08923 7.26758 3.1322 6.71094 3.41931 6.02539C3.70642 5.33984 3.33728 4.23242 3.87634 3.69336C4.41541 3.1543 5.54626 3.51172 6.20837 3.23633C6.87048 2.96094 7.45056 1.90625 8.18298 1.90625C8.91541 1.90625 9.47205 2.94922 10.1576 3.23633C10.8431 3.52344 11.9506 3.1543 12.4896 3.69336C13.0287 4.23242 12.6713 5.36328 12.9467 6.02539C13.222 6.6875 14.2767 7.26758 14.2767 8C14.2767 8.73242 13.2338 9.28906 12.9467 9.97461C12.6595 10.6602 13.0287 11.7676 12.4896 12.3066C11.9506 12.8457 10.8197 12.4883 10.1576 12.7637C9.49548 13.0391 8.91541 14.0938 8.18298 14.0938C7.45056 14.0938 6.89392 13.0508 6.20837 12.7637C5.52283 12.4766 4.41541 12.8457 3.87634 12.3066Z" fill="#8C8CA2"/>
<path d="M10.7611 6.59375L7.32166 9.875L5.60486 8.23438" stroke="white" stroke-linecap="round" stroke-linejoin="round"/>
</svg>
