<svg width="30" height="31" viewBox="0 0 30 31" fill="none" xmlns="http://www.w3.org/2000/svg">
<circle cx="15" cy="15.936" r="15" fill="white"/>
<path d="M15 17.1079C15.6472 17.1079 16.1719 16.5832 16.1719 15.936C16.1719 15.2888 15.6472 14.7642 15 14.7642C14.3528 14.7642 13.8281 15.2888 13.8281 15.936C13.8281 16.5832 14.3528 17.1079 15 17.1079Z" fill="#6C63FF"/>
<path d="M21.25 17.1079C21.8972 17.1079 22.4219 16.5832 22.4219 15.936C22.4219 15.2888 21.8972 14.7642 21.25 14.7642C20.6028 14.7642 20.0781 15.2888 20.0781 15.936C20.0781 16.5832 20.6028 17.1079 21.25 17.1079Z" fill="#6C63FF"/>
<path d="M8.75 17.1079C9.39721 17.1079 9.92188 16.5832 9.92188 15.936C9.92188 15.2888 9.39721 14.7642 8.75 14.7642C8.10279 14.7642 7.57812 15.2888 7.57812 15.936C7.57812 16.5832 8.10279 17.1079 8.75 17.1079Z" fill="#6C63FF"/>
</svg>
