<svg width="21" height="21" viewBox="0 0 21 21" fill="none" xmlns="http://www.w3.org/2000/svg">
<path d="M10.8416 11.4375C11.3593 11.4375 11.7791 11.0178 11.7791 10.5C11.7791 9.98223 11.3593 9.5625 10.8416 9.5625C10.3238 9.5625 9.90405 9.98223 9.90405 10.5C9.90405 11.0178 10.3238 11.4375 10.8416 11.4375Z" fill="#4A4A68"/>
<path d="M10.8416 6.4375C11.3593 6.4375 11.7791 6.01777 11.7791 5.5C11.7791 4.98223 11.3593 4.5625 10.8416 4.5625C10.3238 4.5625 9.90405 4.98223 9.90405 5.5C9.90405 6.01777 10.3238 6.4375 10.8416 6.4375Z" fill="#4A4A68"/>
<path d="M10.8416 16.4375C11.3593 16.4375 11.7791 16.0178 11.7791 15.5C11.7791 14.9822 11.3593 14.5625 10.8416 14.5625C10.3238 14.5625 9.90405 14.9822 9.90405 15.5C9.90405 16.0178 10.3238 16.4375 10.8416 16.4375Z" fill="#4A4A68"/>
</svg>
