<svg width="16" height="16" viewBox="0 0 16 16" fill="none" xmlns="http://www.w3.org/2000/svg">
<path d="M7.95993 11.2229L10.9131 13.0979C11.2939 13.3382 11.7627 12.9807 11.6513 12.5413L10.7959 9.17799C10.7727 9.08477 10.7764 8.9869 10.8065 8.89568C10.8365 8.80445 10.8918 8.72358 10.9658 8.66237L13.6142 6.45338C13.9599 6.16627 13.7841 5.5862 13.333 5.5569L9.87594 5.33424C9.78162 5.32875 9.69093 5.29591 9.61497 5.23972C9.53901 5.18353 9.48106 5.10643 9.44821 5.01784L8.15915 1.77174C8.12502 1.67794 8.06286 1.5969 7.9811 1.53964C7.89934 1.48238 7.80194 1.45166 7.70212 1.45166C7.60229 1.45166 7.50489 1.48238 7.42313 1.53964C7.34137 1.5969 7.27921 1.67794 7.24508 1.77174L5.95602 5.01784C5.92317 5.10643 5.86522 5.18353 5.78926 5.23972C5.7133 5.29591 5.62261 5.32875 5.52829 5.33424L2.07126 5.5569C1.62008 5.5862 1.4443 6.16627 1.79001 6.45338L4.43844 8.66237C4.51247 8.72358 4.56769 8.80445 4.59776 8.89568C4.62782 8.9869 4.6315 9.08477 4.60837 9.17799L3.81735 12.2952C3.68258 12.8225 4.24508 13.2503 4.69626 12.9631L7.4443 11.2229C7.52136 11.1739 7.61079 11.1479 7.70212 11.1479C7.79344 11.1479 7.88287 11.1739 7.95993 11.2229Z" fill="#EFCF28"/>
</svg>
